<svg width="244" height="248" viewBox="0 0 244 248" fill="none" xmlns="http://www.w3.org/2000/svg">
<path d="M235.592 108.206C235.622 91.9356 230.118 77.5963 221.2 64.4745C217.051 58.3747 212.621 52.3498 207.603 46.9632C184.736 22.4402 156.835 7.00676 122.886 8.37291C82.4778 9.99493 49.2651 26.9783 27.4715 62.4819C22.586 70.439 18.1714 78.8256 14.7427 87.496C5.13348 111.956 3.22038 137.449 12.962 161.835C25.9558 194.326 47.8819 219.413 81.7715 232.179C116.632 245.313 150.919 244.267 180.851 221.491C217.683 193.454 235.901 154.85 235.592 108.206ZM127.801 247.92C76.8124 249.716 32.6071 221.147 10.0189 173.223C-4.26978 142.934 -2.37143 112.301 10.0043 82.2564C21.6295 54.0953 39.5529 30.6929 66.2026 14.5698C88.1139 1.32598 111.718 -2.01951 136.616 1.06718C143.679 1.95246 150.699 3.23183 157.674 4.7318C179.526 9.45521 196.964 21.4078 211.12 38.3412C223.938 53.6894 236.975 69.1479 241.258 89.3901C246.334 113.345 244.363 136.993 235.342 159.807C226.557 182.016 214.829 202.209 196.92 218.725C177.187 236.926 154.333 246.517 127.801 247.92Z" fill="#F57EB4"/>
<path d="M218.044 117.556C217.338 127.53 187.787 133.298 129.389 134.863C118.004 174.834 111.329 197.256 109.366 202.129C107.402 207.002 105.154 209.349 102.623 209.169C99.4006 208.942 96.1007 206.544 92.7231 201.977C89.3614 197.183 87.8009 193.086 88.0414 189.686C88.2979 186.059 88.9077 182.344 89.8707 178.539C90.8498 174.508 92.3183 168.461 94.2764 160.399C96.4807 152.126 98.5779 143.732 100.568 135.216C80.6794 135.176 62.9102 134.602 47.2603 133.495C41.7369 133.104 36.9491 130.488 32.897 125.645C28.8449 120.802 26.9873 116.001 27.324 111.241C27.6607 106.481 31.0511 104.329 37.4951 104.785C71.5565 107.194 94.488 108.361 106.29 108.284C109.563 91.4304 113.086 71.0634 116.857 47.1829C117.568 40.3991 120.11 37.1619 124.483 37.4712C128.855 37.7805 134.039 41.3365 140.034 48.1391C146.26 54.9579 149.204 60.7474 148.867 65.5074C148.546 70.0408 144.759 84.3523 137.503 108.442C170.376 108.034 189.459 108.017 194.753 108.391C210.633 109.514 218.396 112.569 218.044 117.556Z" fill="#F57EB4"/>
</svg>
