<svg width="117" height="134" viewBox="0 0 117 134" fill="none" xmlns="http://www.w3.org/2000/svg">
<path d="M84.476 8.82467C98.0453 9.66734 106.292 19.4687 110.296 31.1647C104.568 39.0273 100.715 42.9313 94.18 50.1367C76.3907 69.754 58.6627 89.598 40.8733 109.214C27.6987 116.841 15.1747 124.591 2 132.217C3.884 118.685 8.49867 101.369 13.3893 88.6127C32.3133 66.2527 51.2213 44.9327 71.04 23.362C75.432 18.582 80.084 13.6047 84.476 8.82467Z" stroke="white" stroke-width="2.66667" stroke-miterlimit="10" stroke-linecap="round" stroke-linejoin="round"/>
<path d="M84.0172 8.5577C87.9452 3.63903 94.6745 1.1297 100.864 2.2737C107.055 3.41903 112.44 8.1697 114.349 14.167C116.259 20.1657 114.609 27.155 110.22 31.667L39.8465 109.576C38.2265 106.754 37.3759 103.25 34.6745 101.435C32.5385 100 29.6759 100.019 27.2585 100.899C24.8399 101.778 22.7785 103.411 20.8212 105.082C22.0932 101.27 22.6652 97.227 22.5039 93.2124C22.4399 91.6337 22.2065 89.9324 21.1052 88.8004C20.0999 87.767 18.5425 87.4284 17.1092 87.579C15.6745 87.7297 14.3252 88.3057 12.9999 88.875L5.5332 115.195C6.75454 116.107 7.97587 117.019 9.1972 117.931C11.2692 119.478 13.4879 121.246 14.0265 123.775" stroke="white" stroke-width="2.66667" stroke-miterlimit="10" stroke-linecap="round" stroke-linejoin="round"/>
</svg>
