<svg width="123" height="127" viewBox="0 0 123 127" fill="none" xmlns="http://www.w3.org/2000/svg">
<path fill-rule="evenodd" clip-rule="evenodd" d="M42.812 80.76H39.5853C38.9453 67.112 38.8786 53.4427 39.3986 39.7694C39.4253 39.1814 40.6653 38.696 41.5986 38.696C42.1586 38.696 42.5986 38.8734 42.5853 39.316C42.0653 53.14 42.1453 66.9627 42.812 80.76ZM44.5853 104.749H44.5856L44.5829 104.722C44.3971 102.802 44.2115 100.883 44.0522 98.9614H44.039C43.999 98.9614 43.9722 98.9588 43.9322 98.9548C43.8941 98.9508 43.8572 98.946 43.8215 98.9403C43.8571 98.9459 43.8939 98.9507 43.9319 98.9547C43.9719 98.9587 43.9987 98.9613 44.0387 98.9613H44.052C43.6653 94.5707 43.3453 90.1762 43.0919 85.7802L43.0922 85.7801C43.0256 84.7001 42.959 83.6187 42.9056 82.5387H39.6655C39.719 83.6698 39.7843 84.8015 39.8497 85.9325L39.8497 85.9328C39.8821 86.4949 39.9146 87.0568 39.9456 87.6185L39.9453 87.6187C40.052 89.3667 40.172 91.1107 40.3053 92.8587L40.3056 92.8589C40.5456 96.3468 40.839 99.8334 41.1723 103.319H41.172C41.3587 105.361 41.5586 107.407 41.7853 109.448C41.812 109.747 42.1853 109.876 42.652 109.876C43.6253 109.876 45.0653 109.331 44.9853 108.592L44.5853 104.749ZM44.4891 104.73C44.3972 104.69 44.3222 104.583 44.2922 104.377C44.2293 103.816 44.0745 103.475 43.8645 103.278C44.0744 103.475 44.229 103.816 44.2919 104.377C44.322 104.584 44.3971 104.69 44.4891 104.73ZM39.5854 80.7601L39.6654 82.5387H42.9055C42.8922 82.2421 42.8755 81.9457 42.8588 81.6494C42.8421 81.3531 42.8255 81.0567 42.8121 80.7601H39.5854Z" fill="white"/>
<path fill-rule="evenodd" clip-rule="evenodd" d="M72.9588 110.695L72.959 110.695C73.1457 111.132 73.6523 111.328 74.199 111.328C74.839 111.328 75.559 111.063 75.919 110.601C75.8319 110.644 75.7415 110.683 75.6485 110.718C75.7414 110.683 75.8317 110.644 75.9188 110.601C76.0521 110.431 76.1321 110.235 76.1455 110.013L76.3455 106.597L76.3457 106.597C76.4124 105.504 76.4657 104.412 76.519 103.319L76.5188 103.319C76.7855 98.4373 76.9988 93.5533 77.1722 88.6693C77.1721 88.6693 77.1721 88.6693 77.1721 88.6693L77.292 85.2747C77.292 85.2747 77.2921 85.2747 77.2921 85.2747C77.3054 84.6214 77.3321 83.9681 77.3588 83.3148L77.359 83.3147C77.359 83.1854 77.3623 83.0561 77.3657 82.9268L77.3657 82.9267L77.3657 82.9266C77.369 82.7973 77.3724 82.668 77.3724 82.5387H77.3724C77.3989 81.9475 77.4122 81.3577 77.4255 80.7666L77.4255 80.7665L77.4256 80.7601H75.159C75.0905 80.7601 75.0243 80.7735 74.9618 80.7984C75.0243 80.7735 75.0905 80.76 75.159 80.76H77.4257C77.4923 78.1414 77.559 75.5227 77.599 72.904C77.5857 72.908 77.5725 72.9133 77.5592 72.9186L77.559 72.9187L77.5591 72.9186C77.5723 72.9133 77.5855 72.908 77.5987 72.904C77.6054 72.7174 77.6087 72.53 77.6121 72.3427C77.6154 72.1554 77.6188 71.9681 77.6254 71.7814L77.6257 71.7814C77.7323 65.744 77.7724 59.708 77.7457 53.668C77.3009 54.4863 76.618 55.1268 75.9327 55.7694C75.4266 56.2441 74.9192 56.7199 74.5057 57.2694C74.5057 66.3693 74.359 75.4692 74.079 84.5652L74.0788 84.5653C73.8921 90.6173 73.6388 96.6667 73.3188 102.715L73.319 102.715C73.2523 104.129 73.1723 105.544 73.0923 106.957C73.1925 106.998 73.2927 107.036 73.3921 107.067C73.2926 107.036 73.1924 106.999 73.0921 106.957L72.8921 110.244C72.8921 110.416 72.9188 110.565 72.9588 110.695ZM77.559 72.9187C77.5057 72.936 77.4524 72.944 77.4124 72.944L77.4121 72.944C77.4521 72.944 77.5054 72.936 77.5588 72.9187L77.559 72.9187ZM74.5055 57.2694V55.1293L74.5057 55.1288V54.6715L74.5055 54.6707L74.5055 54.6667C74.4922 51.652 74.4788 48.6347 74.4388 45.6187L74.4391 45.6185C74.4257 44.8526 74.4157 44.087 74.4057 43.3215L74.4057 43.3214C74.3957 42.5557 74.3857 41.79 74.3724 41.024C74.3591 40.6041 74.6256 40.2654 74.9989 40.0374L74.9987 40.0374C75.3454 39.824 75.7988 39.708 76.2254 39.708C76.9188 39.708 77.5455 40.0107 77.6121 40.7067C77.5484 40.7034 77.4848 40.6989 77.4213 40.6932C77.4848 40.6989 77.5485 40.7035 77.6124 40.7067V40.7934L77.6523 43.1134L77.6521 43.1135L77.6921 45.8147L77.5321 45.9867C77.4024 46.1337 77.2421 46.2764 77.0792 46.4214C76.5554 46.8877 76.006 47.3767 76.3722 48.104C76.5489 48.4459 76.7831 48.6953 77.0571 48.8827C76.7832 48.6953 76.549 48.4459 76.3723 48.1041C76.0061 47.3768 76.5555 46.8877 77.0793 46.4214L77.0793 46.4214C77.2422 46.2765 77.4025 46.1337 77.5322 45.9867L77.6922 45.8147L77.6922 45.8173V45.8173C77.7055 46.9471 77.7189 48.0783 77.7189 49.2081L77.7188 49.208L77.719 49.2284L77.719 49.2287C77.7322 50.7097 77.7455 52.1869 77.7455 53.668C77.3007 54.4863 76.6177 55.1268 75.9325 55.7694C75.4264 56.2441 74.919 56.7199 74.5055 57.2694ZM74.3321 110.945C74.3671 110.945 74.4021 110.945 74.437 110.944C74.4021 110.945 74.3672 110.945 74.3323 110.945L74.3321 110.945Z" fill="white"/>
<path d="M32.5323 126.544C30.6389 126.463 28.7323 126.363 26.8323 126.244C26.8256 126.236 26.8203 126.226 26.8149 126.219H32.0123C32.2257 126.219 32.4123 126.345 32.5323 126.544Z" fill="white"/>
<path d="M43.6786 126.801C41.6386 126.793 39.5986 126.766 37.5586 126.713C37.6786 126.421 37.9053 126.219 38.172 126.219H43.5986C43.6119 126.401 43.6386 126.595 43.6786 126.801Z" fill="white"/>
<path d="M44.6787 126.802C44.3454 126.802 44.012 126.802 43.6787 126.801C43.6387 126.595 43.612 126.401 43.5986 126.219H44.3454C44.6387 126.219 44.8787 126.463 44.9721 126.802C44.8787 126.802 44.772 126.802 44.6787 126.802Z" fill="white"/>
<path d="M53.9854 126.649C54.172 126.494 54.3587 126.351 54.5587 126.219H56.6653C56.8786 126.219 57.0654 126.338 57.1854 126.527C56.1187 126.573 55.052 126.614 53.9854 126.649Z" fill="white"/>
<path d="M49.8789 126.755C49.9856 126.44 50.2256 126.219 50.5056 126.219H54.5589C54.3589 126.351 54.1722 126.494 53.9855 126.649C52.6255 126.695 51.2522 126.73 49.8789 126.755Z" fill="white"/>
<path d="M9.59212 35.9441C9.51746 35.4241 9.44283 34.9001 9.36816 34.3788C10.0748 34.3028 10.7829 34.2268 11.4895 34.1534C10.6749 34.6854 10.0455 35.2668 9.59212 35.9441Z" fill="white"/>
<path d="M13.1296 37.4667C12.9523 37.3053 12.835 37.0373 12.835 36.7333C12.835 36.5467 12.8789 36.3733 12.9549 36.2307C13.0135 36.6427 13.0723 37.0547 13.1296 37.4667Z" fill="white"/>
<path d="M101.279 82.5387H99.8255C99.4388 82.5387 99.1455 82.14 99.1455 81.6494C99.1455 81.1587 99.4388 80.76 99.8255 80.76H101.692C101.559 81.3534 101.412 81.9454 101.279 82.5387Z" fill="white"/>
<path d="M112.065 26.6774C112.412 26.54 112.785 26.4667 113.132 26.4667C113.425 26.4667 113.706 26.5227 113.906 26.64C113.292 26.652 112.679 26.664 112.065 26.6774Z" fill="white"/>
<path d="M115.252 13.36C115.519 13.2907 115.759 13.2187 116.012 13.1373C116.652 13.2253 117.252 13.148 117.679 13.288C116.879 13.3093 116.065 13.3333 115.252 13.36Z" fill="white"/>
<path d="M121.692 13.4948C120.479 13.1454 118.905 12.9294 119.239 11.0934C119.252 11.0134 119.279 10.9361 119.292 10.8628C119.625 10.8548 119.972 10.8481 120.305 10.8414C120.319 10.8414 120.345 10.8414 120.359 10.8414C121.012 10.8414 121.852 11.1161 121.799 11.9241C121.759 12.4494 121.732 12.9721 121.692 13.4948Z" fill="white"/>
<path d="M111.879 37.5454C111.639 37.4067 111.465 37.0961 111.465 36.7334C111.465 36.2427 111.772 35.8454 112.145 35.8454H112.279C112.145 36.4121 112.012 36.9801 111.879 37.5454Z" fill="white"/>
<path d="M96.6122 14.3921C96.5855 14.3294 96.5588 14.2654 96.5321 14.2041C95.9454 12.7841 97.1321 12.6161 98.0255 12.3014C98.3321 12.1934 98.6522 12.0268 98.9722 11.8494C99.9722 11.7774 100.985 11.7094 101.985 11.6441C102.225 11.9668 102.426 12.4414 102.612 13.1121C102.732 13.5668 103.159 13.7988 103.639 13.7988C103.946 13.7988 104.279 13.7081 104.572 13.5254C105.372 13.0188 105.412 12.3334 104.812 11.6201C104.772 11.5721 104.732 11.5228 104.706 11.4748C105.772 11.4108 106.852 11.3508 107.932 11.2948C108.119 11.7628 108.439 12.2254 108.932 12.6734C109.332 13.0401 109.132 13.3481 108.825 13.6268C104.745 13.8294 100.679 14.0894 96.6122 14.3921Z" fill="white"/>
<path d="M110.172 44.7454C109.586 44.3507 108.999 44.1374 108.439 44.1374C107.946 44.1374 107.466 44.3014 107.012 44.6534C108.172 39.7187 109.332 34.788 110.492 29.8534C110.572 29.624 110.625 29.3894 110.665 29.1494C110.665 29.1294 110.679 29.112 110.679 29.0934C111.746 29.0707 112.812 29.0494 113.879 29.0294C113.346 31.3014 112.812 33.5734 112.279 35.8454H112.146C111.772 35.8454 111.465 36.2427 111.465 36.7334C111.465 37.096 111.639 37.4067 111.879 37.5454C111.306 39.9454 110.746 42.3454 110.172 44.7454Z" fill="white"/>
<path d="M37.5587 126.713C37.1054 126.702 36.6388 126.689 36.1721 126.676C36.2121 126.242 36.0387 125.73 35.6654 125.172C35.5187 124.949 35.3988 124.735 35.3055 124.53C35.9055 124.52 36.5054 124.502 37.0788 124.487C37.9854 124.461 38.8654 124.436 39.6654 124.436C39.8787 124.436 40.0788 124.437 40.2788 124.442C41.4921 124.466 42.7054 124.482 43.9187 124.489C43.6121 124.861 43.5187 125.43 43.5987 126.219H38.1721C37.9055 126.219 37.6787 126.421 37.5587 126.713ZM57.1854 126.527C57.0654 126.338 56.8787 126.219 56.6654 126.219H54.5587C55.8254 125.38 57.412 124.978 58.9987 124.485C59.132 124.44 59.2521 124.306 59.3587 124.14C59.7854 124.118 60.2254 124.094 60.6521 124.069C61.7454 124.733 62.7721 125.39 61.5055 126.302C60.0655 126.388 58.6254 126.463 57.1854 126.527ZM26.8147 126.219H26.4441C25.8375 126.18 25.2308 126.14 24.6241 126.097C24.2134 126.068 23.6681 125.804 23.5747 125.357C23.5681 125.324 23.5614 125.288 23.5547 125.255C23.8734 125.172 24.1987 125.128 24.5187 125.128C25.4161 125.128 26.2694 125.468 26.8147 126.219ZM69.0254 125.755C69.4121 125.364 69.5455 124.821 68.7721 124.1C68.5321 123.882 68.1054 123.747 67.7587 123.571C69.1321 123.457 70.492 123.333 71.8654 123.199C72.172 123.351 72.4921 123.451 72.8254 123.451C73.1987 123.451 73.5854 123.319 73.9987 122.982C77.932 122.566 81.8654 122.066 85.7854 121.489C85.9854 122.577 85.1054 123.108 84.0254 123.554C83.4654 123.784 82.9188 124.028 82.3721 124.28C77.9321 124.878 73.4787 125.369 69.0254 125.755ZM49.7987 124.595C49.4787 124.595 49.1321 124.551 48.7454 124.478C49.3721 124.471 49.9987 124.461 50.6254 124.449C50.6521 124.449 50.6787 124.448 50.7187 124.448C50.4254 124.551 50.1187 124.595 49.7987 124.595ZM92.7587 115.347C91.7454 115.347 91.7188 114.232 91.8788 112.957C92.0121 111.805 91.9321 110.853 91.5854 110.127C92.8654 104.72 94.1321 99.3187 95.4121 93.9134C96.4654 94.0054 97.5587 93.8894 98.532 94.172C96.892 101.171 95.2387 108.171 93.5854 115.169C93.2521 115.291 92.9854 115.347 92.7587 115.347ZM99.6121 89.6054C99.2521 88.3854 97.932 87.5414 97.9987 86.596C98.0654 85.3947 97.9588 84.632 97.7055 84.1747C100.812 71.0014 103.905 57.8267 107.012 44.6534C107.465 44.3014 107.945 44.1374 108.439 44.1374C108.999 44.1374 109.585 44.3507 110.172 44.7454C107.345 56.7507 104.519 68.7534 101.692 80.76H99.8254C99.4387 80.76 99.1454 81.1587 99.1454 81.6494C99.1454 82.1401 99.4387 82.5387 99.8254 82.5387H101.279C100.719 84.8934 100.159 87.2507 99.6121 89.6054Z" fill="white"/>
<path d="M36.1724 126.676C34.959 126.64 33.7456 126.596 32.5323 126.544C32.4123 126.345 32.2257 126.219 32.0123 126.219H26.8149C26.2696 125.468 25.4163 125.128 24.519 125.128C24.199 125.128 23.8736 125.172 23.5549 125.255C23.1242 123.169 22.7083 121.088 22.303 118.999C22.4163 118.888 22.5283 118.768 22.6416 118.637C23.0963 118.113 23.9683 117.932 24.6696 117.652C24.7643 117.614 24.8643 117.581 24.9656 117.549C25.6923 120.694 26.847 123.375 28.8923 123.975C30.4256 124.427 32.3457 124.537 34.3057 124.537C34.639 124.537 34.9724 124.535 35.3057 124.53C35.399 124.735 35.5189 124.949 35.6656 125.172C36.0389 125.73 36.2124 126.242 36.1724 126.676ZM61.5057 126.302C62.7724 125.39 61.7456 124.733 60.6523 124.069C63.0256 123.933 65.3989 123.768 67.7589 123.571C68.1056 123.747 68.5324 123.882 68.7724 124.1C69.5457 124.821 69.4123 125.364 69.0256 125.755C66.9723 125.932 64.9056 126.087 62.8523 126.219H62.839C62.799 126.219 62.7723 126.221 62.7457 126.225C62.3323 126.252 61.919 126.277 61.5057 126.302ZM82.3724 124.28C82.919 124.028 83.4656 123.784 84.0256 123.554C85.1056 123.108 85.9856 122.577 85.7856 121.489C86.8656 121.331 87.9456 121.166 89.0256 120.995C89.8789 117.373 90.7323 113.748 91.5856 110.127C91.9323 110.853 92.0123 111.805 91.879 112.957C91.719 114.232 91.7456 115.347 92.7589 115.347C92.9856 115.347 93.2523 115.291 93.5856 115.169C93.0656 117.383 92.5456 119.594 92.0256 121.807C91.8256 122.649 91.0389 122.977 90.2656 123.104C87.6389 123.533 84.999 123.925 82.3724 124.28ZM72.8256 123.451C72.4923 123.451 72.1723 123.351 71.8656 123.199C72.5723 123.13 73.2923 123.057 73.9989 122.982C73.5856 123.319 73.1989 123.451 72.8256 123.451ZM24.5376 115.387C24.4856 115.38 24.4337 115.372 24.379 115.367C23.4403 115.255 22.503 115.129 21.5444 115.031C21.235 113.383 20.9336 111.735 20.6363 110.084C21.327 108.897 22.0204 107.712 22.8284 106.612C22.963 106.428 23.1044 106.26 23.2497 106.107C23.3097 106.447 23.371 106.787 23.431 107.127C23.7683 109.027 24.0029 112.253 24.5376 115.387ZM19.8444 105.593C19.599 104.18 19.3589 102.768 19.1216 101.353C20.1602 101.875 21.4789 102.253 22.6709 102.78C22.7776 103.401 22.8856 104.024 22.9936 104.645C22.5776 104.693 22.1349 104.684 21.7989 104.881C21.2323 105.213 20.4524 105.324 19.8444 105.593Z" fill="white"/>
<path d="M98.532 94.172C97.5587 93.8893 96.4654 94.0053 95.4121 93.9133C96.1721 90.668 96.9321 87.42 97.7055 84.1747C97.9588 84.632 98.0654 85.3947 97.9987 86.596C97.932 87.5413 99.2521 88.3853 99.6121 89.6053C99.2521 91.1267 98.892 92.6507 98.532 94.172Z" fill="white"/>
<path d="M44.9724 126.802C44.8791 126.463 44.6391 126.219 44.3457 126.219H43.599C43.519 125.43 43.6124 124.861 43.919 124.489C44.519 124.494 45.1323 124.495 45.7323 124.495C46.7323 124.495 47.7457 124.489 48.7457 124.478C49.1324 124.551 49.479 124.595 49.799 124.595C50.119 124.595 50.4257 124.551 50.719 124.448C53.599 124.392 56.479 124.289 59.359 124.14C59.2524 124.306 59.1323 124.44 58.999 124.485C57.4123 124.978 55.8257 125.38 54.559 126.219H50.5058C50.2258 126.219 49.9857 126.44 49.8791 126.755C48.2524 126.785 46.6124 126.801 44.9724 126.802Z" fill="white"/>
<path d="M14.4284 70.5641C12.7937 59.0281 11.243 47.4788 9.59229 35.9441C10.0456 35.2668 10.675 34.6854 11.4897 34.1534C11.8737 34.1134 12.2563 34.0734 12.6416 34.0334C12.7456 34.7668 12.8509 35.4974 12.9549 36.2308C12.8789 36.3734 12.835 36.5468 12.835 36.7334C12.835 37.0374 12.9523 37.3054 13.1297 37.4668C14.6737 48.3681 16.131 59.2854 17.667 70.1894C17.6617 70.1894 17.6563 70.1894 17.651 70.1894C17.5763 70.1894 17.5016 70.1921 17.4269 70.2001C16.4243 70.2974 15.4257 70.4348 14.4284 70.5641Z" fill="white"/>
<path d="M19.1881 80.76H15.8988C15.3975 77.3613 14.9096 73.9653 14.4282 70.564C15.4256 70.4347 16.4241 70.2974 17.4268 70.2C17.5015 70.192 17.5762 70.1893 17.6509 70.1893C17.6562 70.1893 17.6616 70.1893 17.6669 70.1893C18.1642 73.7147 18.6695 77.2373 19.1881 80.76Z" fill="white"/>
<path d="M22.3029 118.999C22.0456 117.677 21.7923 116.353 21.5443 115.031C22.503 115.129 23.4403 115.255 24.3789 115.367C24.4336 115.372 24.4855 115.38 24.5375 115.387C24.6615 116.119 24.8029 116.845 24.9655 117.549C24.8642 117.581 24.7642 117.614 24.6696 117.652C23.9682 117.932 23.0962 118.113 22.6416 118.637C22.5282 118.768 22.4162 118.888 22.3029 118.999ZM20.6362 110.084C20.3669 108.588 20.103 107.091 19.8443 105.593C20.4523 105.324 21.2322 105.213 21.7989 104.881C22.1349 104.684 22.5775 104.693 22.9935 104.645C23.0789 105.133 23.1643 105.619 23.2496 106.107C23.1043 106.26 22.963 106.428 22.8283 106.612C22.0203 107.712 21.3269 108.897 20.6362 110.084ZM22.6709 102.78C21.4789 102.253 20.1602 101.875 19.1215 101.353C18.0722 95.092 17.095 88.8186 16.1616 82.5386H19.4509C20.4563 89.2946 21.5162 96.0466 22.6709 102.78Z" fill="white"/>
<path d="M19.4507 82.5387H16.1614C16.0948 82.0867 16.0281 81.6347 15.9614 81.184C16.5494 81.468 17.1201 81.5854 17.6774 81.5854C18.2174 81.5854 18.7468 81.4747 19.2668 81.2974C19.3281 81.7107 19.3894 82.124 19.4507 82.5387Z" fill="white"/>
<path d="M11.4897 34.1533C12.019 33.8067 12.627 33.4813 13.3164 33.1613C12.0084 32.8893 11.0203 32.7187 10.179 32.7187C9.60166 32.7187 9.09228 32.8 8.59761 32.984C8.24428 33.116 7.92024 33.1773 7.62691 33.1773C6.98957 33.1773 6.50029 32.884 6.18029 32.368C7.74696 32.1907 9.3163 32.0173 10.8856 31.852C10.9936 31.84 11.099 31.8293 11.207 31.8173C12.3563 31.696 13.511 31.5773 14.663 31.4626C14.9843 31.4626 15.2803 31.4626 15.563 31.4626C15.823 31.4626 16.0737 31.4626 16.323 31.4613C17.3883 31.4573 18.2736 31.316 18.9763 31.044C31.7589 29.844 44.5723 28.996 57.3856 28.3707C57.6656 28.484 57.879 28.6773 57.9723 29.008C58.1723 29.7266 57.5323 30.2773 56.9589 30.4986C56.7456 30.584 56.5323 30.688 56.319 30.804C41.7456 31.5253 27.1723 32.5387 12.6416 34.0333C12.2563 34.0733 11.8737 34.1133 11.4897 34.1533ZM3.40698 23.8226C2.56832 23.6813 1.68291 23.6213 0.765579 23.6173C0.554912 23.6173 0.338907 23.6053 0.126907 23.5773C0.0722402 22.664 0.0296777 21.7453 0.000344345 20.8253C-0.0196557 20.1853 0.836334 19.7387 1.323 19.588C2.70567 19.1547 4.13096 18.8293 5.58563 18.5867C5.59896 18.7893 5.60431 19.008 5.60165 19.2453C5.59365 19.828 5.48433 20.5187 5.751 21.004C4.923 21.1147 4.09769 21.2626 3.27769 21.46C3.31102 22.2506 3.35365 23.0373 3.40698 23.8226ZM9.41766 20.7133C9.57633 20.0746 8.98957 19.36 8.82157 18.736C8.76957 18.544 8.72296 18.3613 8.68029 18.188C10.7003 17.9973 12.759 17.9253 14.823 17.9066C14.3177 18.7053 14.4457 19.6906 14.5777 20.6773C14.223 20.6773 13.8683 20.676 13.5136 20.676C13.1176 20.6746 12.723 20.6733 12.3283 20.6733C11.3563 20.6733 10.3857 20.68 9.41766 20.7133Z" fill="white"/>
<path d="M4.2737 34.9333C3.5897 34.9333 3.26033 34.616 3.20833 34.2107C2.94833 34.2973 2.67634 34.3453 2.41901 34.3453C1.83634 34.3453 1.3337 34.104 1.24036 33.5427C0.692365 30.2187 0.32562 26.9173 0.126953 23.5773C0.338953 23.6053 0.554958 23.6173 0.765625 23.6173C1.68296 23.6213 2.56836 23.6813 3.40703 23.8227C3.60703 26.7667 3.94835 29.6853 4.42969 32.6147C4.56035 32.5707 4.69904 32.5387 4.8457 32.5214C5.29104 32.4694 5.735 32.4187 6.18034 32.368C6.50034 32.884 6.98962 33.1773 7.62695 33.1773C7.92029 33.1773 8.24432 33.116 8.59765 32.984C9.09232 32.8 9.6017 32.7187 10.179 32.7187C11.0204 32.7187 12.0084 32.8893 13.3164 33.1613C12.6271 33.4813 12.019 33.8067 11.4897 34.1534C10.783 34.2267 10.075 34.3027 9.36836 34.3787C7.76969 34.5507 6.17103 34.7293 4.5737 34.9147C4.46703 34.9267 4.36703 34.9333 4.2737 34.9333ZM15.563 31.4627C15.2804 31.4627 14.9844 31.4627 14.663 31.4627C16.099 31.3173 17.539 31.1787 18.9763 31.044C18.2736 31.316 17.3884 31.4573 16.323 31.4613C16.0737 31.4627 15.823 31.4627 15.563 31.4627ZM94.679 29.4467C94.7057 29.392 94.7189 29.3334 94.7323 29.2694C94.9189 28.4347 95.039 27.7013 95.0923 27.0493C95.6923 27.0347 96.2924 27.02 96.879 27.0067C96.839 27.9 96.799 28.7427 97.1057 29.388C96.2924 29.408 95.4924 29.4267 94.679 29.4467ZM110.666 29.0933C110.732 28.564 110.679 28.0147 110.479 27.4613C110.372 27.1907 110.239 26.94 110.066 26.7174C110.732 26.704 111.399 26.6907 112.066 26.6773C112.679 26.664 113.292 26.652 113.906 26.64C115.519 26.608 117.119 26.5773 118.719 26.5467C118.612 25.408 118.532 24.272 118.466 23.136C118.572 23.124 118.692 23.1173 118.812 23.1173C119.252 23.1173 119.732 23.2027 120.266 23.376C120.706 23.5187 121.159 23.5773 121.626 23.5773C121.666 23.5773 121.706 23.576 121.759 23.576C121.839 24.8053 121.946 26.0387 122.079 27.2773C122.186 28.2147 121.226 28.8854 120.346 28.9027C118.186 28.944 116.039 28.9867 113.879 29.0293C112.812 29.0493 111.746 29.0707 110.679 29.0933C110.679 29.0933 110.679 29.0933 110.666 29.0933ZM5.75104 21.004C5.48437 20.5187 5.59369 19.828 5.60169 19.2453C5.60436 19.008 5.59901 18.7894 5.58568 18.5867C6.60434 18.416 7.63767 18.2854 8.68034 18.188C8.723 18.3614 8.76961 18.544 8.82161 18.736C8.98961 19.36 9.57637 20.0747 9.41771 20.7133C8.18971 20.756 6.96704 20.84 5.75104 21.004ZM14.6964 20.6773C14.6564 20.6773 14.6177 20.6773 14.5777 20.6773C14.4457 19.6907 14.3177 18.7053 14.823 17.9067C15.203 17.904 15.583 17.9027 15.963 17.9027C17.3377 17.9027 18.7137 17.9213 20.0803 17.94C21.4483 17.9587 22.8056 17.9773 24.1483 17.9773C25.6043 17.9773 27.0391 17.956 28.4391 17.8867C30.6124 17.7814 32.7724 17.6574 34.9457 17.5187C33.3857 17.9094 32.0256 18.8667 30.7323 19.832C30.5856 19.9453 30.4523 20.0587 30.3323 20.172C25.647 20.4253 20.959 20.6027 16.2697 20.668C15.7457 20.676 15.2204 20.6773 14.6964 20.6773ZM39.5457 17.82C39.079 17.82 38.6124 17.7507 38.1724 17.612C37.7857 17.4973 37.4256 17.42 37.0656 17.3773C38.959 17.248 40.8524 17.108 42.7457 16.96C42.439 17.1133 42.0257 17.188 41.679 17.3467C40.9857 17.66 40.2657 17.82 39.5457 17.82ZM121.572 17.6613C121.186 17.5973 120.812 17.5133 120.426 17.408C119.706 17.2093 118.999 17.0853 118.332 17.064C118.359 15.8013 118.399 14.536 118.479 13.268C118.212 13.2747 117.946 13.2814 117.679 13.288C117.252 13.148 116.652 13.2254 116.012 13.1374C115.759 13.2187 115.519 13.2907 115.252 13.36C113.106 13.432 110.972 13.5213 108.826 13.6267C109.132 13.348 109.332 13.04 108.932 12.6733C108.439 12.2253 108.119 11.7627 107.932 11.2947C111.719 11.096 115.506 10.948 119.292 10.8627C119.279 10.936 119.252 11.0133 119.239 11.0933C118.906 12.9293 120.479 13.1453 121.692 13.4947C121.626 14.8893 121.586 16.276 121.572 17.6613ZM63.759 17.4093C63.5056 17.312 63.2657 17.1693 63.0391 16.9653C62.1857 16.212 61.0656 15.8053 59.9323 15.4173C62.4256 15.176 64.9057 14.9293 67.3857 14.6827C67.3857 14.9253 67.3724 15.1667 67.3724 15.4093C67.3591 15.9987 67.8923 16.2427 68.5323 16.2427C69.4523 16.2427 70.5723 15.748 70.5857 15.056C70.5857 14.8253 70.5989 14.596 70.5989 14.3653C70.8789 14.3387 71.1457 14.3107 71.4124 14.284C70.9457 14.836 70.5457 15.5107 70.279 16.2933C70.2257 16.4653 70.1324 16.628 70.0391 16.7867C67.9457 16.9934 65.8523 17.2013 63.759 17.4093ZM79.479 14.7493C79.1857 14.7493 78.839 14.5467 78.3323 14.0387C78.199 13.8987 78.0524 13.7693 77.9057 13.6507C78.9724 13.548 80.0391 13.4467 81.1057 13.3467C80.9857 13.4707 80.8657 13.5987 80.7457 13.7307C80.2257 14.2893 79.919 14.7493 79.479 14.7493ZM93.1724 14.6587C92.9724 14.58 92.759 14.5133 92.5457 14.4573C90.5457 13.932 88.559 13.4173 86.4124 12.8613C90.599 12.4893 94.7857 12.1453 98.9724 11.8493C98.6524 12.0267 98.3323 12.1933 98.0256 12.3013C97.1323 12.616 95.9456 12.784 96.5323 14.204C96.5589 14.2654 96.5857 14.3293 96.6124 14.392C95.4657 14.4773 94.3191 14.5667 93.1724 14.6587ZM103.639 13.7987C103.159 13.7987 102.732 13.5667 102.612 13.112C102.426 12.4413 102.226 11.9667 101.986 11.644C102.892 11.584 103.799 11.528 104.706 11.4747C104.732 11.5227 104.772 11.572 104.812 11.62C105.412 12.3334 105.372 13.0187 104.572 13.5253C104.279 13.708 103.946 13.7987 103.639 13.7987Z" fill="white"/>
<path d="M82.3187 29.7854C82.0254 29.5161 81.9321 29.0974 82.0521 28.5774C82.1854 27.9881 82.4121 27.7921 82.6788 27.7921C82.9988 27.7921 83.3854 28.0961 83.732 28.3254C84.2787 28.6921 84.8254 28.8214 85.3587 28.8214C86.1587 28.8201 86.9588 28.5427 87.7721 28.3281C88.9188 28.0334 89.3587 27.6667 89.3187 27.1987C91.2387 27.1467 93.1721 27.0974 95.0921 27.0494C95.0387 27.7014 94.9187 28.4347 94.732 29.2694C94.7187 29.3334 94.7054 29.3921 94.6788 29.4467C90.5588 29.5481 86.4387 29.6601 82.3187 29.7854ZM30.332 20.1721C30.452 20.0587 30.5854 19.9454 30.732 19.8321C32.0254 18.8667 33.3854 17.9094 34.9454 17.5187C35.6521 17.4734 36.3587 17.4267 37.0654 17.3774C37.4254 17.4201 37.7855 17.4974 38.1721 17.6121C38.6121 17.7507 39.0788 17.8201 39.5454 17.8201C40.2654 17.8201 40.9854 17.6601 41.6788 17.3467C42.0254 17.1881 42.4388 17.1134 42.7454 16.9601C44.5988 16.8134 46.4521 16.6587 48.3055 16.4974C48.3721 16.6494 48.492 16.7587 48.6654 16.8307C47.572 17.0547 46.6121 17.4467 46.3854 18.4614C46.3321 18.6814 46.3187 18.8721 46.332 19.0387C43.5054 19.2787 40.6654 19.5027 37.8254 19.7027C37.5187 19.7067 37.2121 19.7281 36.9055 19.7667C35.0788 19.8921 33.2521 20.0081 31.4121 20.1107C31.0521 20.1321 30.692 20.1521 30.332 20.1721ZM48.8254 18.8241C48.7187 18.1281 49.2921 17.8561 49.8121 17.5321C50.8921 16.8467 52.4654 17.4001 53.3187 16.1121C53.2921 16.0921 53.2521 16.0734 53.2254 16.0561C55.0521 15.8867 56.8788 15.7134 58.7055 15.5374C59.1055 15.4974 59.5187 15.4574 59.932 15.4174C61.0654 15.8054 62.1855 16.2121 63.0388 16.9654C63.2655 17.1694 63.5054 17.3121 63.7587 17.4094C62.7054 17.5134 61.6387 17.6174 60.5854 17.7201C59.5054 17.8267 58.412 17.9334 57.332 18.0374C56.9054 17.8614 56.492 17.6827 56.0654 17.4987C56.1187 17.7267 56.2121 17.9374 56.3187 18.1347C53.8121 18.3734 51.3187 18.6041 48.8254 18.8241ZM70.0388 16.7867C70.1321 16.6281 70.2254 16.4654 70.2788 16.2934C70.5454 15.5107 70.9454 14.8361 71.4121 14.2841C73.5854 14.0707 75.7455 13.8587 77.9055 13.6507C78.0521 13.7694 78.1987 13.8987 78.332 14.0387C78.8387 14.5467 79.1854 14.7494 79.4788 14.7494C79.9188 14.7494 80.2254 14.2894 80.7454 13.7307C80.8654 13.5987 80.9855 13.4707 81.1055 13.3467C82.8788 13.1801 84.6521 13.0187 86.4121 12.8614C88.5588 13.4174 90.5454 13.9321 92.5454 14.4574C92.7588 14.5134 92.9721 14.5801 93.1721 14.6587C85.4521 15.2747 77.7455 16.0227 70.0388 16.7867ZM50.8654 16.4654C50.9587 16.3987 51.052 16.3254 51.132 16.2467C51.2654 16.2347 51.3987 16.2227 51.532 16.2107C51.3054 16.3161 51.092 16.4174 50.8654 16.4641V16.4654Z" fill="white"/>
<path d="M56.319 30.8041C56.5324 30.6881 56.7457 30.5841 56.959 30.4987C57.5323 30.2774 58.1724 29.7267 57.9724 29.0081C57.8791 28.6774 57.6657 28.4841 57.3857 28.3707C59.0924 28.2881 60.7857 28.2081 62.4791 28.1334C62.2791 28.4014 62.0657 28.6827 61.8657 28.9614C61.4657 29.4921 60.319 29.6241 60.7857 30.5921C59.3057 30.6601 57.8124 30.7307 56.319 30.8041ZM77.8124 29.9281C76.0524 29.1307 74.3458 28.1081 72.5058 27.7281C78.1058 27.5227 83.719 27.3494 89.319 27.1987C89.359 27.6667 88.9191 28.0334 87.7724 28.3281C86.9591 28.5427 86.159 28.8201 85.359 28.8214C84.8257 28.8214 84.279 28.6921 83.7323 28.3254C83.3857 28.0961 82.9991 27.7921 82.6791 27.7921C82.4124 27.7921 82.1857 27.9881 82.0524 28.5774C81.9324 29.0974 82.0257 29.5161 82.319 29.7854C80.8257 29.8307 79.3191 29.8787 77.8124 29.9281ZM68.1724 28.1947C67.9324 28.1947 67.6257 28.1014 67.519 27.9614C67.5057 27.9481 67.4924 27.9347 67.4791 27.9214C68.0657 27.8987 68.6524 27.8747 69.2391 27.8521C68.9724 27.9321 68.7057 28.0321 68.4257 28.1534C68.359 28.1814 68.2658 28.1947 68.1724 28.1947ZM36.9058 19.7667C37.2124 19.7281 37.519 19.7067 37.8257 19.7027C37.519 19.7241 37.2124 19.7454 36.9058 19.7667ZM46.3323 19.0387C46.319 18.8721 46.3324 18.6814 46.3857 18.4614C46.6124 17.4467 47.5723 17.0547 48.6657 16.8307C48.839 16.9001 49.039 16.9321 49.2657 16.9321C49.7857 16.9321 50.4123 16.7587 50.8657 16.4654V16.4641C51.0923 16.4174 51.3057 16.3161 51.5323 16.2107C52.1057 16.1601 52.6657 16.1081 53.2257 16.0561C53.2523 16.0734 53.2924 16.0921 53.319 16.1121C52.4657 17.4001 50.8924 16.8467 49.8124 17.5321C49.2924 17.8561 48.719 18.1281 48.8257 18.8241C47.999 18.8974 47.1723 18.9681 46.3323 19.0387ZM56.319 18.1347C56.2124 17.9374 56.119 17.7267 56.0657 17.4987C56.4923 17.6827 56.9057 17.8614 57.3323 18.0374C56.9857 18.0694 56.6524 18.1027 56.319 18.1347Z" fill="white"/>
<path d="M97.1054 29.3881C96.7988 28.7427 96.8387 27.9 96.8787 27.0067C101.279 26.9014 105.665 26.8067 110.065 26.7174C110.239 26.9401 110.372 27.1907 110.479 27.4614C110.679 28.0147 110.732 28.5641 110.665 29.0934C106.145 29.1841 101.625 29.2814 97.1054 29.3881Z" fill="white"/>
<path d="M121.625 23.5774C121.159 23.5774 120.705 23.5187 120.265 23.3761C119.732 23.2027 119.252 23.1174 118.812 23.1174C118.692 23.1174 118.572 23.1241 118.465 23.1361C118.345 21.1134 118.305 19.0907 118.332 17.0641C118.999 17.0854 119.705 17.2094 120.425 17.4081C120.812 17.5134 121.186 17.5974 121.572 17.6614C121.559 19.6334 121.625 21.6001 121.759 23.5761C121.705 23.5761 121.665 23.5774 121.625 23.5774Z" fill="white"/>
<path d="M60.7856 30.592C60.319 29.624 61.4656 29.492 61.8656 28.9614C62.0656 28.6827 62.279 28.4014 62.479 28.1334C64.1456 28.0587 65.8123 27.9894 67.479 27.9214C67.4923 27.9347 67.5056 27.948 67.519 27.9614C67.6256 28.1014 67.9323 28.1947 68.1723 28.1947C68.2657 28.1947 68.3589 28.1814 68.4256 28.1534C68.7056 28.0321 68.9723 27.9321 69.239 27.8521C70.3323 27.8094 71.4123 27.768 72.5057 27.728C74.3457 28.108 76.0523 29.1307 77.8123 29.928C72.1323 30.116 66.4656 30.3334 60.7856 30.592Z" fill="white"/>
<path d="M68.5323 16.2427C67.8923 16.2427 67.3591 15.9987 67.3724 15.4093C67.3724 15.1667 67.3857 14.9253 67.3857 14.6827C67.4524 12.2187 67.4923 9.75601 67.4923 7.29067C67.4923 6.39467 67.8123 4.34402 67.4657 3.60135C66.8657 2.25869 66.3991 2.51735 65.2124 2.31468C64.0124 2.11068 62.7457 2.00001 61.4524 1.96135C61.4524 1.74668 61.4523 1.53202 61.4657 1.32002C61.4657 1.01602 61.5324 0.593353 61.519 0.269353C62.9457 0.177353 64.7057 1.72442e-05 66.319 1.72442e-05C67.5324 1.72442e-05 68.6524 0.10135 69.4791 0.416017C70.9191 0.972017 70.6657 1.72268 70.6791 3.24802C70.7324 6.95335 70.6923 10.66 70.599 14.3653C70.599 14.596 70.5857 14.8253 70.5857 15.056C70.5724 15.748 69.4523 16.2427 68.5323 16.2427ZM48.0391 13.6307C47.7324 10.22 47.4257 6.80801 47.1323 3.39735C47.1457 3.39735 47.1591 3.39735 47.1724 3.39735C48.7058 3.39735 49.3857 4.45602 49.719 5.72002C50.079 7.06135 50.5591 8.83601 49.0391 9.54535C47.5058 10.2693 47.8124 10.9254 48.3457 11.988C48.6391 12.576 48.7991 13.2613 48.0391 13.6307Z" fill="white"/>
<path d="M48.6654 16.8307C48.4921 16.7587 48.3722 16.6494 48.3055 16.4974C48.2922 16.448 48.2788 16.396 48.2788 16.3374C48.1988 15.436 48.1188 14.5334 48.0388 13.6307C48.7988 13.2614 48.6388 12.576 48.3455 11.988C47.8122 10.9254 47.5055 10.2694 49.0388 9.54535C50.5588 8.83602 50.0788 7.06136 49.7188 5.72003C49.3855 4.45603 48.7055 3.39736 47.1722 3.39736C47.1588 3.39736 47.1454 3.39736 47.1321 3.39736C47.1054 3.14136 47.0787 2.88402 47.0654 2.62669C46.9854 1.71469 48.1588 1.33868 48.8521 1.22402C52.6521 0.594683 56.4522 0.366682 60.3055 0.322682C60.6655 0.317348 61.0788 0.297361 61.5188 0.269361C61.5321 0.593361 61.4654 1.01603 61.4654 1.32003C61.4521 1.53203 61.4521 1.74669 61.4521 1.96135C61.0921 1.95202 60.7322 1.94669 60.3722 1.94669C57.0388 1.94669 53.5454 2.37336 50.3588 2.86669C50.7321 7.07069 51.1055 11.276 51.4788 15.48C51.5055 15.7694 51.3587 16.0294 51.1321 16.2467C51.0521 16.3254 50.9587 16.3987 50.8654 16.4654C50.1987 16.6027 49.3987 16.6787 48.6654 16.8307Z" fill="white"/>
<path d="M49.2655 16.932C49.0389 16.932 48.8389 16.9 48.6655 16.8307C49.3989 16.6787 50.1989 16.6027 50.8655 16.4653C50.4122 16.7587 49.7855 16.932 49.2655 16.932Z" fill="white"/>
<path d="M17.6777 81.5853C17.1204 81.5853 16.5497 81.468 15.9617 81.184C15.9404 81.044 15.9189 80.9 15.8989 80.76H19.1882C19.2149 80.9387 19.2404 81.1187 19.267 81.2973C18.747 81.4747 18.2177 81.5853 17.6777 81.5853Z" fill="white"/>
</svg>
