<svg width="28" height="31" viewBox="0 0 28 31" fill="none" xmlns="http://www.w3.org/2000/svg">
<path d="M2.63161 2.06667C2.08078 2.06667 1.5525 2.2844 1.163 2.67198C0.773505 3.05955 0.554688 3.58522 0.554688 4.13333V6.2C0.554688 6.74811 0.773505 7.27378 1.163 7.66135C1.5525 8.04893 2.08078 8.26667 2.63161 8.26667H3.67007V26.8667C3.67007 27.9629 4.10771 29.0142 4.88671 29.7894C5.6657 30.5645 6.72225 31 7.82392 31H20.2855C21.3871 31 22.4437 30.5645 23.2227 29.7894C24.0017 29.0142 24.4393 27.9629 24.4393 26.8667V8.26667H25.4778C26.0286 8.26667 26.5569 8.04893 26.9464 7.66135C27.3359 7.27378 27.5547 6.74811 27.5547 6.2V4.13333C27.5547 3.58522 27.3359 3.05955 26.9464 2.67198C26.5569 2.2844 26.0286 2.06667 25.4778 2.06667H18.2085C18.2085 1.51855 17.9897 0.992888 17.6002 0.605313C17.2107 0.217737 16.6824 0 16.1316 0L11.9778 0C11.4269 0 10.8987 0.217737 10.5092 0.605313C10.1197 0.992888 9.90084 1.51855 9.90084 2.06667H2.63161ZM8.86238 10.3333C9.1378 10.3333 9.40193 10.4422 9.59668 10.636C9.79143 10.8298 9.90084 11.0926 9.90084 11.3667V25.8333C9.90084 26.1074 9.79143 26.3702 9.59668 26.564C9.40193 26.7578 9.1378 26.8667 8.86238 26.8667C8.58696 26.8667 8.32283 26.7578 8.12808 26.564C7.93333 26.3702 7.82392 26.1074 7.82392 25.8333V11.3667C7.82392 11.0926 7.93333 10.8298 8.12808 10.636C8.32283 10.4422 8.58696 10.3333 8.86238 10.3333ZM14.0547 10.3333C14.3301 10.3333 14.5942 10.4422 14.789 10.636C14.9837 10.8298 15.0931 11.0926 15.0931 11.3667V25.8333C15.0931 26.1074 14.9837 26.3702 14.789 26.564C14.5942 26.7578 14.3301 26.8667 14.0547 26.8667C13.7793 26.8667 13.5151 26.7578 13.3204 26.564C13.1256 26.3702 13.0162 26.1074 13.0162 25.8333V11.3667C13.0162 11.0926 13.1256 10.8298 13.3204 10.636C13.5151 10.4422 13.7793 10.3333 14.0547 10.3333ZM20.2855 11.3667V25.8333C20.2855 26.1074 20.176 26.3702 19.9813 26.564C19.7866 26.7578 19.5224 26.8667 19.247 26.8667C18.9716 26.8667 18.7074 26.7578 18.5127 26.564C18.3179 26.3702 18.2085 26.1074 18.2085 25.8333V11.3667C18.2085 11.0926 18.3179 10.8298 18.5127 10.636C18.7074 10.4422 18.9716 10.3333 19.247 10.3333C19.5224 10.3333 19.7866 10.4422 19.9813 10.636C20.176 10.8298 20.2855 11.0926 20.2855 11.3667Z" fill="white"/>
</svg>
