<svg width="29" height="28" viewBox="0 0 29 28" fill="none" xmlns="http://www.w3.org/2000/svg">
<path d="M23.0479 0.256185C22.8838 0.0921498 22.6613 0 22.4293 0C22.1973 0 21.9747 0.0921498 21.8107 0.256185L18.9285 3.1384L25.4155 9.62557L28.2976 6.7451C28.3791 6.66382 28.4438 6.56727 28.4879 6.46097C28.532 6.35466 28.5547 6.2407 28.5547 6.12561C28.5547 6.01052 28.532 5.89656 28.4879 5.79026C28.4438 5.68395 28.3791 5.5874 28.2976 5.50612L23.0479 0.256185ZM24.1783 10.8628L17.6913 4.37563L6.31685 15.7505H6.67908C6.91113 15.7505 7.13368 15.8427 7.29777 16.0068C7.46186 16.1709 7.55404 16.3934 7.55404 16.6255V17.5005H8.429C8.66106 17.5005 8.88361 17.5927 9.0477 17.7567C9.21178 17.9208 9.30397 18.1434 9.30397 18.3755V19.2504H10.1789C10.411 19.2504 10.6335 19.3426 10.7976 19.5067C10.9617 19.6708 11.0539 19.8934 11.0539 20.1254V21.0004H11.9289C12.1609 21.0004 12.3835 21.0926 12.5475 21.2567C12.7116 21.4208 12.8038 21.6434 12.8038 21.8754V22.2377L24.1783 10.8628ZM11.1099 23.9316C11.0731 23.8337 11.0541 23.73 11.0539 23.6254V22.7504H10.1789C9.94687 22.7504 9.72432 22.6582 9.56024 22.4941C9.39615 22.33 9.30397 22.1075 9.30397 21.8754V21.0004H8.429C8.19695 21.0004 7.9744 20.9082 7.81031 20.7441C7.64622 20.5801 7.55404 20.3575 7.55404 20.1254V19.2504H6.67908C6.44703 19.2504 6.22448 19.1583 6.06039 18.9942C5.8963 18.8301 5.80412 18.6075 5.80412 18.3755V17.5005H4.92916C4.82455 17.5003 4.72082 17.4813 4.62292 17.4445L4.30968 17.756C4.2263 17.8399 4.16082 17.94 4.11719 18.05L0.617345 26.7999C0.5537 26.9589 0.538119 27.1331 0.572536 27.3008C0.606952 27.4686 0.689852 27.6226 0.810958 27.7437C0.932064 27.8648 1.08605 27.9477 1.25383 27.9821C1.4216 28.0166 1.59579 28.001 1.7548 27.9373L10.5044 24.4374C10.6144 24.3938 10.7144 24.3283 10.7984 24.2449L11.1099 23.9316Z" fill="white"/>
</svg>
