<svg width="2582" height="1440" viewBox="0 0 2582 1440" fill="none" xmlns="http://www.w3.org/2000/svg">
<path d="M2582 1440H0V2.67202e-05H2582V1440Z" fill="url(#paint0_linear_234_83)"/>
<path d="M814.026 802.891L865.279 737L862.189 820.422L943.806 802.891L887.815 864.808L961.605 903.841L878.915 915.284L910.352 992.616L839.653 948.229L814.026 1027.68L788.399 948.229L717.7 992.616L749.136 915.284L666.446 903.841L740.236 864.808L684.246 802.891L765.863 820.422L762.772 737L814.026 802.891Z" fill="#E4CE61"/>
<g filter="url(#filter0_d_234_83)">
<g clip-path="url(#clip0_234_83)">
<path d="M1318.6 1235L1318.6 175.007L166.603 175.007L166.603 1235L1318.6 1235Z" fill="#5C54AF"/>
<path d="M389.302 175.007L389.302 1235L387.25 1235L387.25 175.007L389.302 175.007Z" fill="#6961B6"/>
<path d="M298.991 160.317L298.991 1220.31L296.939 1220.31L296.939 160.317L298.991 160.317Z" fill="#6961B6"/>
<path d="M346.2 160.317L346.2 1220.31L344.147 1220.31L344.147 160.317L346.2 160.317Z" fill="#6961B6"/>
<path d="M1318.6 1193.85L1318.6 1196.52L1285.76 1196.52L1285.76 1193.85L1318.6 1193.85ZM1283.7 1193.85L1283.7 1196.52L1238.78 1196.52L1238.78 1193.85L1283.7 1193.85ZM1236.73 1193.85L1236.73 1196.52L1191.8 1196.52L1191.8 1193.85L1236.73 1193.85ZM1189.75 1193.85L1189.75 1196.52L1144.83 1196.52L1144.83 1193.85L1189.75 1193.85ZM1142.77 1193.85L1142.77 1196.52L1097.85 1196.52L1097.85 1193.85L1142.77 1193.85ZM1095.8 1193.85L1095.8 1196.52L1050.87 1196.52L1050.87 1193.85L1095.8 1193.85ZM1048.82 1193.85L1048.82 1196.52L1003.9 1196.52L1003.9 1193.85L1048.82 1193.85ZM1001.84 1193.85L1001.84 1196.52L956.92 1196.52L956.92 1193.85L1001.84 1193.85ZM954.867 1193.85L954.867 1196.52L909.944 1196.52L909.944 1193.85L954.867 1193.85ZM907.892 1193.85L907.892 1196.52L862.967 1196.52L862.967 1193.85L907.892 1193.85ZM860.915 1193.85L860.915 1196.52L815.992 1196.52L815.992 1193.85L860.915 1193.85ZM813.939 1193.85L813.939 1196.52L769.015 1196.52L769.015 1193.85L813.939 1193.85ZM766.963 1193.85L766.963 1196.52L722.038 1196.52L722.038 1193.85L766.963 1193.85ZM719.986 1193.85L719.986 1196.52L675.063 1196.52L675.063 1193.85L719.986 1193.85ZM673.009 1193.85L673.009 1196.52L628.086 1196.52L628.086 1193.85L673.009 1193.85ZM626.034 1193.85L626.034 1196.52L581.109 1196.52L581.109 1193.85L626.034 1193.85ZM579.057 1193.85L579.057 1196.52L534.132 1196.52L534.132 1193.85L579.057 1193.85ZM532.08 1193.85L532.08 1196.52L487.157 1196.52L487.157 1193.85L532.08 1193.85ZM485.104 1193.85L485.104 1196.52L440.18 1196.52L440.18 1193.85L485.104 1193.85ZM438.128 1193.85L438.128 1196.52L393.205 1196.52L393.205 1193.85L438.128 1193.85ZM391.151 1193.85L391.151 1196.52L346.227 1196.52L346.227 1193.85L391.151 1193.85ZM344.175 1193.85L344.175 1196.52L299.251 1196.52L299.251 1193.85L344.175 1193.85ZM297.199 1193.85L297.199 1196.52L252.274 1196.52L252.274 1193.85L297.199 1193.85ZM250.222 1193.85L250.222 1196.52L205.297 1196.52L205.297 1193.85L250.222 1193.85ZM203.245 1193.85L203.245 1196.52L166.603 1196.52L166.603 1193.85L203.245 1193.85Z" fill="#6961B6"/>
<path d="M1318.6 1132.72L1318.6 1135.39L1285.76 1135.39L1285.76 1132.72L1318.6 1132.72ZM1283.7 1132.72L1283.7 1135.39L1238.78 1135.39L1238.78 1132.72L1283.7 1132.72ZM1236.73 1132.72L1236.73 1135.39L1191.8 1135.39L1191.8 1132.72L1236.73 1132.72ZM1189.75 1132.72L1189.75 1135.39L1144.83 1135.39L1144.83 1132.72L1189.75 1132.72ZM1142.77 1132.72L1142.77 1135.39L1097.85 1135.39L1097.85 1132.72L1142.77 1132.72ZM1095.8 1132.72L1095.8 1135.39L1050.87 1135.39L1050.87 1132.72L1095.8 1132.72ZM1048.82 1132.72L1048.82 1135.39L1003.9 1135.39L1003.9 1132.72L1048.82 1132.72ZM1001.84 1132.72L1001.84 1135.39L956.92 1135.39L956.92 1132.72L1001.84 1132.72ZM954.867 1132.72L954.867 1135.39L909.944 1135.39L909.944 1132.72L954.867 1132.72ZM907.892 1132.72L907.892 1135.39L862.967 1135.39L862.967 1132.72L907.892 1132.72ZM860.915 1132.72L860.915 1135.39L815.992 1135.39L815.992 1132.72L860.915 1132.72ZM813.939 1132.72L813.939 1135.39L769.015 1135.39L769.015 1132.72L813.939 1132.72ZM766.963 1132.72L766.963 1135.39L722.038 1135.39L722.038 1132.72L766.963 1132.72ZM719.986 1132.72L719.986 1135.39L675.063 1135.39L675.063 1132.72L719.986 1132.72ZM673.009 1132.72L673.009 1135.39L628.086 1135.39L628.086 1132.72L673.009 1132.72ZM626.034 1132.72L626.034 1135.39L581.109 1135.39L581.109 1132.72L626.034 1132.72ZM579.057 1132.72L579.057 1135.39L534.132 1135.39L534.132 1132.72L579.057 1132.72ZM532.08 1132.72L532.08 1135.39L487.157 1135.39L487.157 1132.72L532.08 1132.72ZM485.104 1132.72L485.104 1135.39L440.18 1135.39L440.18 1132.72L485.104 1132.72ZM438.128 1132.72L438.128 1135.39L393.205 1135.39L393.205 1132.72L438.128 1132.72ZM391.151 1132.72L391.151 1135.39L346.227 1135.39L346.227 1132.72L391.151 1132.72ZM344.175 1132.72L344.175 1135.39L299.251 1135.39L299.251 1132.72L344.175 1132.72ZM297.199 1132.72L297.199 1135.39L252.274 1135.39L252.274 1132.72L297.199 1132.72ZM250.222 1132.72L250.222 1135.39L205.297 1135.39L205.297 1132.72L250.222 1132.72ZM203.245 1132.72L203.245 1135.39L166.603 1135.39L166.603 1132.72L203.245 1132.72Z" fill="#6961B6"/>
<path d="M1318.6 1071.59L1318.6 1074.26L1285.76 1074.26L1285.76 1071.59L1318.6 1071.59ZM1283.7 1071.59L1283.7 1074.26L1238.78 1074.26L1238.78 1071.59L1283.7 1071.59ZM1236.73 1071.59L1236.73 1074.26L1191.8 1074.26L1191.8 1071.59L1236.73 1071.59ZM1189.75 1071.59L1189.75 1074.26L1144.83 1074.26L1144.83 1071.59L1189.75 1071.59ZM1142.77 1071.59L1142.77 1074.26L1097.85 1074.26L1097.85 1071.59L1142.77 1071.59ZM1095.8 1071.59L1095.8 1074.26L1050.87 1074.26L1050.87 1071.59L1095.8 1071.59ZM1048.82 1071.59L1048.82 1074.26L1003.9 1074.26L1003.9 1071.59L1048.82 1071.59ZM1001.84 1071.59L1001.84 1074.26L956.92 1074.26L956.92 1071.59L1001.84 1071.59ZM954.867 1071.59L954.867 1074.26L909.944 1074.26L909.944 1071.59L954.867 1071.59ZM907.892 1071.59L907.892 1074.26L862.967 1074.26L862.967 1071.59L907.892 1071.59ZM860.915 1071.59L860.915 1074.26L815.992 1074.26L815.992 1071.59L860.915 1071.59ZM813.939 1071.59L813.939 1074.26L769.015 1074.26L769.015 1071.59L813.939 1071.59ZM766.963 1071.59L766.963 1074.26L722.038 1074.26L722.038 1071.59L766.963 1071.59ZM719.986 1071.59L719.986 1074.26L675.063 1074.26L675.063 1071.59L719.986 1071.59ZM673.009 1071.59L673.009 1074.26L628.086 1074.26L628.086 1071.59L673.009 1071.59ZM626.034 1071.59L626.034 1074.26L581.109 1074.26L581.109 1071.59L626.034 1071.59ZM579.057 1071.59L579.057 1074.26L534.132 1074.26L534.132 1071.59L579.057 1071.59ZM532.08 1071.59L532.08 1074.26L487.157 1074.26L487.157 1071.59L532.08 1071.59ZM485.104 1071.59L485.104 1074.26L440.18 1074.26L440.18 1071.59L485.104 1071.59ZM438.128 1071.59L438.128 1074.26L393.205 1074.26L393.205 1071.59L438.128 1071.59ZM391.151 1071.59L391.151 1074.26L346.227 1074.26L346.227 1071.59L391.151 1071.59ZM344.175 1071.59L344.175 1074.26L299.251 1074.26L299.251 1071.59L344.175 1071.59ZM297.199 1071.59L297.199 1074.26L252.274 1074.26L252.274 1071.59L297.199 1071.59ZM250.222 1071.59L250.222 1074.26L205.297 1074.26L205.297 1071.59L250.222 1071.59ZM203.245 1071.59L203.245 1074.26L166.603 1074.26L166.603 1071.59L203.245 1071.59Z" fill="#6961B6"/>
<path d="M1318.6 1010.45L1318.6 1013.12L1285.76 1013.12L1285.76 1010.45L1318.6 1010.45ZM1283.7 1010.45L1283.7 1013.12L1238.78 1013.12L1238.78 1010.45L1283.7 1010.45ZM1236.73 1010.45L1236.73 1013.12L1191.8 1013.12L1191.8 1010.45L1236.73 1010.45ZM1189.75 1010.45L1189.75 1013.12L1144.83 1013.12L1144.83 1010.45L1189.75 1010.45ZM1142.77 1010.45L1142.77 1013.12L1097.85 1013.12L1097.85 1010.45L1142.77 1010.45ZM1095.8 1010.45L1095.8 1013.12L1050.87 1013.12L1050.87 1010.45L1095.8 1010.45ZM1048.82 1010.45L1048.82 1013.12L1003.9 1013.12L1003.9 1010.45L1048.82 1010.45ZM1001.84 1010.45L1001.84 1013.12L956.92 1013.12L956.92 1010.45L1001.84 1010.45ZM954.867 1010.45L954.867 1013.12L909.944 1013.12L909.944 1010.45L954.867 1010.45ZM907.892 1010.45L907.892 1013.12L862.967 1013.12L862.967 1010.45L907.892 1010.45ZM860.915 1010.45L860.915 1013.12L815.992 1013.12L815.992 1010.45L860.915 1010.45ZM813.939 1010.45L813.939 1013.12L769.015 1013.12L769.015 1010.45L813.939 1010.45ZM766.963 1010.45L766.963 1013.12L722.038 1013.12L722.038 1010.45L766.963 1010.45ZM719.986 1010.45L719.986 1013.12L675.063 1013.12L675.063 1010.45L719.986 1010.45ZM673.009 1010.45L673.009 1013.12L628.086 1013.12L628.086 1010.45L673.009 1010.45ZM626.034 1010.45L626.034 1013.12L581.109 1013.12L581.109 1010.45L626.034 1010.45ZM579.057 1010.45L579.057 1013.12L534.132 1013.12L534.132 1010.45L579.057 1010.45ZM532.08 1010.45L532.08 1013.12L487.157 1013.12L487.157 1010.45L532.08 1010.45ZM485.104 1010.45L485.104 1013.12L440.18 1013.12L440.18 1010.45L485.104 1010.45ZM438.128 1010.45L438.128 1013.12L393.205 1013.12L393.205 1010.45L438.128 1010.45ZM391.151 1010.45L391.151 1013.12L346.227 1013.12L346.227 1010.45L391.151 1010.45ZM344.175 1010.45L344.175 1013.12L299.251 1013.12L299.251 1010.45L344.175 1010.45ZM297.199 1010.45L297.199 1013.12L252.274 1013.12L252.274 1010.45L297.199 1010.45ZM250.222 1010.45L250.222 1013.12L205.297 1013.12L205.297 1010.45L250.222 1010.45ZM203.245 1010.45L203.245 1013.12L166.603 1013.12L166.603 1010.45L203.245 1010.45Z" fill="#6961B6"/>
<path d="M1318.6 949.323L1318.6 951.994L1285.76 951.994L1285.76 949.323L1318.6 949.323ZM1283.7 949.323L1283.7 951.994L1238.78 951.994L1238.78 949.323L1283.7 949.323ZM1236.73 949.323L1236.73 951.994L1191.8 951.994L1191.8 949.323L1236.73 949.323ZM1189.75 949.323L1189.75 951.994L1144.83 951.994L1144.83 949.323L1189.75 949.323ZM1142.77 949.323L1142.77 951.994L1097.85 951.994L1097.85 949.323L1142.77 949.323ZM1095.8 949.323L1095.8 951.994L1050.87 951.994L1050.87 949.323L1095.8 949.323ZM1048.82 949.323L1048.82 951.994L1003.9 951.994L1003.9 949.323L1048.82 949.323ZM1001.84 949.323L1001.84 951.994L956.92 951.994L956.92 949.323L1001.84 949.323ZM954.867 949.323L954.867 951.994L909.944 951.994L909.944 949.323L954.867 949.323ZM907.892 949.323L907.892 951.994L862.967 951.994L862.967 949.323L907.892 949.323ZM860.915 949.323L860.915 951.994L815.992 951.994L815.992 949.323L860.915 949.323ZM813.939 949.323L813.939 951.994L769.015 951.994L769.015 949.323L813.939 949.323ZM766.963 949.323L766.963 951.994L722.038 951.994L722.038 949.323L766.963 949.323ZM719.986 949.323L719.986 951.994L675.063 951.994L675.063 949.323L719.986 949.323ZM673.009 949.323L673.009 951.994L628.086 951.994L628.086 949.323L673.009 949.323ZM626.034 949.323L626.034 951.994L581.109 951.994L581.109 949.323L626.034 949.323ZM579.057 949.323L579.057 951.994L534.132 951.994L534.132 949.323L579.057 949.323ZM532.08 949.323L532.08 951.994L487.157 951.994L487.157 949.323L532.08 949.323ZM485.104 949.323L485.104 951.994L440.18 951.994L440.18 949.323L485.104 949.323ZM438.128 949.323L438.128 951.994L393.205 951.994L393.205 949.323L438.128 949.323ZM391.151 949.323L391.151 951.994L346.227 951.994L346.227 949.323L391.151 949.323ZM344.175 949.323L344.175 951.994L299.251 951.994L299.251 949.323L344.175 949.323ZM297.199 949.323L297.199 951.994L252.274 951.994L252.274 949.323L297.199 949.323ZM250.222 949.323L250.222 951.994L205.297 951.994L205.297 949.323L250.222 949.323ZM203.245 949.323L203.245 951.994L166.603 951.994L166.603 949.323L203.245 949.323Z" fill="#6961B6"/>
<path d="M1318.6 888.19L1318.6 890.861L1285.76 890.861L1285.76 888.19L1318.6 888.19ZM1283.7 888.19L1283.7 890.861L1238.78 890.861L1238.78 888.19L1283.7 888.19ZM1236.73 888.19L1236.73 890.861L1191.8 890.861L1191.8 888.19L1236.73 888.19ZM1189.75 888.19L1189.75 890.861L1144.83 890.861L1144.83 888.19L1189.75 888.19ZM1142.77 888.19L1142.77 890.861L1097.85 890.861L1097.85 888.19L1142.77 888.19ZM1095.8 888.19L1095.8 890.861L1050.87 890.861L1050.87 888.19L1095.8 888.19ZM1048.82 888.19L1048.82 890.861L1003.9 890.861L1003.9 888.19L1048.82 888.19ZM1001.84 888.19L1001.84 890.861L956.92 890.861L956.92 888.19L1001.84 888.19ZM954.867 888.19L954.867 890.861L909.944 890.861L909.944 888.19L954.867 888.19ZM907.892 888.19L907.892 890.861L862.967 890.861L862.967 888.19L907.892 888.19ZM860.915 888.19L860.915 890.861L815.992 890.861L815.992 888.19L860.915 888.19ZM813.939 888.19L813.939 890.861L769.015 890.861L769.015 888.19L813.939 888.19ZM766.963 888.19L766.963 890.861L722.038 890.861L722.038 888.19L766.963 888.19ZM719.986 888.19L719.986 890.861L675.063 890.861L675.063 888.19L719.986 888.19ZM673.009 888.19L673.009 890.861L628.086 890.861L628.086 888.19L673.009 888.19ZM626.034 888.19L626.034 890.861L581.109 890.861L581.109 888.19L626.034 888.19ZM579.057 888.19L579.057 890.861L534.132 890.861L534.132 888.19L579.057 888.19ZM532.08 888.19L532.08 890.861L487.157 890.861L487.157 888.19L532.08 888.19ZM485.104 888.19L485.104 890.861L440.18 890.861L440.18 888.19L485.104 888.19ZM438.128 888.19L438.128 890.861L393.205 890.861L393.205 888.19L438.128 888.19ZM391.151 888.19L391.151 890.861L346.227 890.861L346.227 888.19L391.151 888.19ZM344.175 888.19L344.175 890.861L299.251 890.861L299.251 888.19L344.175 888.19ZM297.199 888.19L297.199 890.861L252.274 890.861L252.274 888.19L297.199 888.19ZM250.222 888.19L250.222 890.861L205.297 890.861L205.297 888.19L250.222 888.19ZM203.245 888.19L203.245 890.861L166.603 890.861L166.603 888.19L203.245 888.19Z" fill="#6961B6"/>
<path d="M1318.6 827.06L1318.6 829.731L1285.76 829.731L1285.76 827.06L1318.6 827.06ZM1283.7 827.06L1283.7 829.731L1238.78 829.731L1238.78 827.06L1283.7 827.06ZM1236.73 827.06L1236.73 829.731L1191.8 829.731L1191.8 827.06L1236.73 827.06ZM1189.75 827.06L1189.75 829.731L1144.83 829.731L1144.83 827.06L1189.75 827.06ZM1142.77 827.06L1142.77 829.731L1097.85 829.731L1097.85 827.06L1142.77 827.06ZM1095.8 827.06L1095.8 829.731L1050.87 829.731L1050.87 827.06L1095.8 827.06ZM1048.82 827.06L1048.82 829.731L1003.9 829.731L1003.9 827.06L1048.82 827.06ZM1001.84 827.06L1001.84 829.731L956.92 829.731L956.92 827.06L1001.84 827.06ZM954.867 827.06L954.867 829.731L909.944 829.731L909.944 827.06L954.867 827.06ZM907.892 827.06L907.892 829.731L862.967 829.731L862.967 827.06L907.892 827.06ZM860.915 827.06L860.915 829.731L815.992 829.731L815.992 827.06L860.915 827.06ZM813.939 827.06L813.939 829.731L769.015 829.731L769.015 827.06L813.939 827.06ZM766.963 827.06L766.963 829.731L722.038 829.731L722.038 827.06L766.963 827.06ZM719.986 827.06L719.986 829.731L675.063 829.731L675.063 827.06L719.986 827.06ZM673.009 827.06L673.009 829.731L628.086 829.731L628.086 827.06L673.009 827.06ZM626.034 827.06L626.034 829.731L581.109 829.731L581.109 827.06L626.034 827.06ZM579.057 827.06L579.057 829.731L534.132 829.731L534.132 827.06L579.057 827.06ZM532.08 827.06L532.08 829.731L487.157 829.731L487.157 827.06L532.08 827.06ZM485.104 827.06L485.104 829.731L440.18 829.731L440.18 827.06L485.104 827.06ZM438.128 827.06L438.128 829.731L393.205 829.731L393.205 827.06L438.128 827.06ZM391.151 827.06L391.151 829.731L346.227 829.731L346.227 827.06L391.151 827.06ZM344.175 827.06L344.175 829.731L299.251 829.731L299.251 827.06L344.175 827.06ZM297.199 827.06L297.199 829.731L252.274 829.731L252.274 827.06L297.199 827.06ZM250.222 827.06L250.222 829.731L205.297 829.731L205.297 827.06L250.222 827.06ZM203.245 827.06L203.245 829.731L166.603 829.731L166.603 827.06L203.245 827.06Z" fill="#6961B6"/>
<path d="M1318.6 765.928L1318.6 768.599L1285.76 768.599L1285.76 765.928L1318.6 765.928ZM1283.7 765.928L1283.7 768.599L1238.78 768.599L1238.78 765.928L1283.7 765.928ZM1236.73 765.928L1236.73 768.599L1191.8 768.599L1191.8 765.928L1236.73 765.928ZM1189.75 765.928L1189.75 768.599L1144.83 768.599L1144.83 765.928L1189.75 765.928ZM1142.77 765.928L1142.77 768.599L1097.85 768.599L1097.85 765.928L1142.77 765.928ZM1095.8 765.928L1095.8 768.599L1050.87 768.599L1050.87 765.928L1095.8 765.928ZM1048.82 765.928L1048.82 768.599L1003.9 768.599L1003.9 765.928L1048.82 765.928ZM1001.84 765.928L1001.84 768.599L956.92 768.599L956.92 765.928L1001.84 765.928ZM954.867 765.928L954.867 768.599L909.944 768.599L909.944 765.928L954.867 765.928ZM907.892 765.928L907.892 768.599L862.967 768.599L862.967 765.928L907.892 765.928ZM860.915 765.928L860.915 768.599L815.992 768.599L815.992 765.928L860.915 765.928ZM813.939 765.928L813.939 768.599L769.015 768.599L769.015 765.928L813.939 765.928ZM766.963 765.928L766.963 768.599L722.038 768.599L722.038 765.928L766.963 765.928ZM719.986 765.928L719.986 768.599L675.063 768.599L675.063 765.928L719.986 765.928ZM673.009 765.928L673.009 768.599L628.086 768.599L628.086 765.928L673.009 765.928ZM626.034 765.928L626.034 768.599L581.109 768.599L581.109 765.928L626.034 765.928ZM579.057 765.928L579.057 768.599L534.132 768.599L534.132 765.928L579.057 765.928ZM532.08 765.928L532.08 768.599L487.157 768.599L487.157 765.928L532.08 765.928ZM485.104 765.928L485.104 768.599L440.18 768.599L440.18 765.928L485.104 765.928ZM438.128 765.928L438.128 768.599L393.205 768.599L393.205 765.928L438.128 765.928ZM391.151 765.928L391.151 768.599L346.227 768.599L346.227 765.928L391.151 765.928ZM344.175 765.928L344.175 768.599L299.251 768.599L299.251 765.928L344.175 765.928ZM297.199 765.928L297.199 768.599L252.274 768.599L252.274 765.928L297.199 765.928ZM250.222 765.928L250.222 768.599L205.297 768.599L205.297 765.928L250.222 765.928ZM203.245 765.928L203.245 768.599L166.603 768.599L166.603 765.928L203.245 765.928Z" fill="#6961B6"/>
<path d="M1318.6 704.795L1318.6 707.466L1285.76 707.466L1285.76 704.795L1318.6 704.795ZM1283.7 704.795L1283.7 707.466L1238.78 707.466L1238.78 704.795L1283.7 704.795ZM1236.73 704.795L1236.73 707.466L1191.8 707.466L1191.8 704.795L1236.73 704.795ZM1189.75 704.795L1189.75 707.466L1144.83 707.466L1144.83 704.795L1189.75 704.795ZM1142.77 704.795L1142.77 707.466L1097.85 707.466L1097.85 704.795L1142.77 704.795ZM1095.8 704.795L1095.8 707.466L1050.87 707.466L1050.87 704.795L1095.8 704.795ZM1048.82 704.795L1048.82 707.466L1003.9 707.466L1003.9 704.795L1048.82 704.795ZM1001.84 704.795L1001.84 707.466L956.92 707.466L956.92 704.795L1001.84 704.795ZM954.867 704.795L954.867 707.466L909.944 707.466L909.944 704.795L954.867 704.795ZM907.892 704.795L907.892 707.466L862.967 707.466L862.967 704.795L907.892 704.795ZM860.915 704.795L860.915 707.466L815.992 707.466L815.992 704.795L860.915 704.795ZM813.939 704.795L813.939 707.466L769.015 707.466L769.015 704.795L813.939 704.795ZM766.963 704.795L766.963 707.466L722.038 707.466L722.038 704.795L766.963 704.795ZM719.986 704.795L719.986 707.466L675.063 707.466L675.063 704.795L719.986 704.795ZM673.009 704.795L673.009 707.466L628.086 707.466L628.086 704.795L673.009 704.795ZM626.034 704.795L626.034 707.466L581.109 707.466L581.109 704.795L626.034 704.795ZM579.057 704.795L579.057 707.466L534.132 707.466L534.132 704.795L579.057 704.795ZM532.08 704.795L532.08 707.466L487.157 707.466L487.157 704.795L532.08 704.795ZM485.104 704.795L485.104 707.466L440.18 707.466L440.18 704.795L485.104 704.795ZM438.128 704.795L438.128 707.466L393.205 707.466L393.205 704.795L438.128 704.795ZM391.151 704.795L391.151 707.466L346.227 707.466L346.227 704.795L391.151 704.795ZM344.175 704.795L344.175 707.466L299.251 707.466L299.251 704.795L344.175 704.795ZM297.199 704.795L297.199 707.466L252.274 707.466L252.274 704.795L297.199 704.795ZM250.222 704.795L250.222 707.466L205.297 707.466L205.297 704.795L250.222 704.795ZM203.245 704.795L203.245 707.466L166.603 707.466L166.603 704.795L203.245 704.795Z" fill="#6961B6"/>
<path d="M1318.6 643.663L1318.6 646.334L1285.76 646.334L1285.76 643.663L1318.6 643.663ZM1283.7 643.663L1283.7 646.334L1238.78 646.334L1238.78 643.663L1283.7 643.663ZM1236.73 643.663L1236.73 646.334L1191.8 646.334L1191.8 643.663L1236.73 643.663ZM1189.75 643.663L1189.75 646.334L1144.83 646.334L1144.83 643.663L1189.75 643.663ZM1142.77 643.663L1142.77 646.334L1097.85 646.334L1097.85 643.663L1142.77 643.663ZM1095.8 643.663L1095.8 646.334L1050.87 646.334L1050.87 643.663L1095.8 643.663ZM1048.82 643.663L1048.82 646.334L1003.9 646.334L1003.9 643.663L1048.82 643.663ZM1001.84 643.663L1001.84 646.334L956.92 646.334L956.92 643.663L1001.84 643.663ZM954.867 643.663L954.867 646.334L909.944 646.334L909.944 643.663L954.867 643.663ZM907.892 643.663L907.892 646.334L862.967 646.334L862.967 643.663L907.892 643.663ZM860.915 643.663L860.915 646.334L815.992 646.334L815.992 643.663L860.915 643.663ZM813.939 643.663L813.939 646.334L769.015 646.334L769.015 643.663L813.939 643.663ZM766.963 643.663L766.963 646.334L722.038 646.334L722.038 643.663L766.963 643.663ZM719.986 643.663L719.986 646.334L675.063 646.334L675.063 643.663L719.986 643.663ZM673.009 643.663L673.009 646.334L628.086 646.334L628.086 643.663L673.009 643.663ZM626.034 643.663L626.034 646.334L581.109 646.334L581.109 643.663L626.034 643.663ZM579.057 643.663L579.057 646.334L534.132 646.334L534.132 643.663L579.057 643.663ZM532.08 643.663L532.08 646.334L487.157 646.334L487.157 643.663L532.08 643.663ZM485.104 643.663L485.104 646.334L440.18 646.334L440.18 643.663L485.104 643.663ZM438.128 643.663L438.128 646.334L393.205 646.334L393.205 643.663L438.128 643.663ZM391.151 643.663L391.151 646.334L346.227 646.334L346.227 643.663L391.151 643.663ZM344.175 643.663L344.175 646.334L299.251 646.334L299.251 643.663L344.175 643.663ZM297.199 643.663L297.199 646.334L252.274 646.334L252.274 643.663L297.199 643.663ZM250.222 643.663L250.222 646.334L205.297 646.334L205.297 643.663L250.222 643.663ZM203.245 643.663L203.245 646.334L166.603 646.334L166.603 643.663L203.245 643.663Z" fill="#6961B6"/>
<path d="M1318.6 582.532L1318.6 585.203L1285.76 585.203L1285.76 582.532L1318.6 582.532ZM1283.7 582.532L1283.7 585.203L1238.78 585.203L1238.78 582.532L1283.7 582.532ZM1236.73 582.532L1236.73 585.203L1191.8 585.203L1191.8 582.532L1236.73 582.532ZM1189.75 582.532L1189.75 585.203L1144.83 585.203L1144.83 582.532L1189.75 582.532ZM1142.77 582.532L1142.77 585.203L1097.85 585.203L1097.85 582.532L1142.77 582.532ZM1095.8 582.532L1095.8 585.203L1050.87 585.203L1050.87 582.532L1095.8 582.532ZM1048.82 582.532L1048.82 585.203L1003.9 585.203L1003.9 582.532L1048.82 582.532ZM1001.84 582.532L1001.84 585.203L956.92 585.203L956.92 582.532L1001.84 582.532ZM954.867 582.532L954.867 585.203L909.944 585.203L909.944 582.532L954.867 582.532ZM907.892 582.532L907.892 585.203L862.967 585.203L862.967 582.532L907.892 582.532ZM860.915 582.532L860.915 585.203L815.992 585.203L815.992 582.532L860.915 582.532ZM813.939 582.532L813.939 585.203L769.015 585.203L769.015 582.532L813.939 582.532ZM766.963 582.532L766.963 585.203L722.038 585.203L722.038 582.532L766.963 582.532ZM719.986 582.532L719.986 585.203L675.063 585.203L675.063 582.532L719.986 582.532ZM673.009 582.532L673.009 585.203L628.086 585.203L628.086 582.532L673.009 582.532ZM626.034 582.532L626.034 585.203L581.109 585.203L581.109 582.532L626.034 582.532ZM579.057 582.532L579.057 585.203L534.132 585.203L534.132 582.532L579.057 582.532ZM532.08 582.532L532.08 585.203L487.157 585.203L487.157 582.532L532.08 582.532ZM485.104 582.532L485.104 585.203L440.18 585.203L440.18 582.532L485.104 582.532ZM438.128 582.532L438.128 585.203L393.205 585.203L393.205 582.532L438.128 582.532ZM391.151 582.532L391.151 585.203L346.227 585.203L346.227 582.532L391.151 582.532ZM344.175 582.532L344.175 585.203L299.251 585.203L299.251 582.532L344.175 582.532ZM297.199 582.532L297.199 585.203L252.274 585.203L252.274 582.532L297.199 582.532ZM250.222 582.532L250.222 585.203L205.297 585.203L205.297 582.532L250.222 582.532ZM203.245 582.532L203.245 585.203L166.603 585.203L166.603 582.532L203.245 582.532Z" fill="#6961B6"/>
<path d="M1318.6 276.106L1318.6 278.777L1285.76 278.777L1285.76 276.106L1318.6 276.106ZM1283.7 276.106L1283.7 278.777L1238.78 278.777L1238.78 276.106L1283.7 276.106ZM1236.73 276.106L1236.73 278.777L1191.8 278.777L1191.8 276.106L1236.73 276.106ZM1189.75 276.106L1189.75 278.777L1144.83 278.777L1144.83 276.106L1189.75 276.106ZM1142.77 276.106L1142.77 278.777L1097.85 278.777L1097.85 276.106L1142.77 276.106ZM1095.8 276.106L1095.8 278.777L1050.87 278.777L1050.87 276.106L1095.8 276.106ZM1048.82 276.106L1048.82 278.777L1003.9 278.777L1003.9 276.106L1048.82 276.106ZM1001.84 276.106L1001.84 278.777L956.92 278.777L956.92 276.106L1001.84 276.106ZM954.867 276.106L954.867 278.777L909.944 278.777L909.944 276.106L954.867 276.106ZM907.892 276.106L907.892 278.777L862.967 278.777L862.967 276.106L907.892 276.106ZM860.915 276.106L860.915 278.777L815.992 278.777L815.992 276.106L860.915 276.106ZM813.939 276.106L813.939 278.777L769.015 278.777L769.015 276.106L813.939 276.106ZM766.963 276.106L766.963 278.777L722.038 278.777L722.038 276.106L766.963 276.106ZM719.986 276.106L719.986 278.777L675.063 278.777L675.063 276.106L719.986 276.106ZM673.009 276.106L673.009 278.777L628.086 278.777L628.086 276.106L673.009 276.106ZM626.034 276.106L626.034 278.777L581.109 278.777L581.109 276.106L626.034 276.106ZM579.057 276.106L579.057 278.777L534.132 278.777L534.132 276.106L579.057 276.106ZM532.08 276.106L532.08 278.777L487.157 278.777L487.157 276.106L532.08 276.106ZM485.104 276.106L485.104 278.777L440.18 278.777L440.18 276.106L485.104 276.106ZM438.128 276.106L438.128 278.777L393.205 278.777L393.205 276.106L438.128 276.106ZM391.151 276.106L391.151 278.777L346.227 278.777L346.227 276.106L391.151 276.106ZM344.175 276.106L344.175 278.777L299.251 278.777L299.251 276.106L344.175 276.106ZM297.199 276.106L297.199 278.777L252.274 278.777L252.274 276.106L297.199 276.106ZM250.222 276.106L250.222 278.777L205.297 278.777L205.297 276.106L250.222 276.106ZM203.245 276.106L203.245 278.777L166.603 278.777L166.603 276.106L203.245 276.106Z" fill="#6961B6"/>
<path d="M1316.55 336.205L1316.55 338.876L1283.7 338.876L1283.7 336.205L1316.55 336.205ZM1281.65 336.205L1281.65 338.876L1236.73 338.876L1236.73 336.205L1281.65 336.205ZM1234.67 336.205L1234.67 338.876L1189.75 338.876L1189.75 336.205L1234.67 336.205ZM1187.7 336.205L1187.7 338.876L1142.77 338.876L1142.77 336.205L1187.7 336.205ZM1140.72 336.205L1140.72 338.876L1095.8 338.876L1095.8 336.205L1140.72 336.205ZM1093.74 336.205L1093.74 338.876L1048.82 338.876L1048.82 336.205L1093.74 336.205ZM1046.77 336.205L1046.77 338.876L1001.84 338.876L1001.84 336.205L1046.77 336.205ZM999.791 336.205L999.791 338.876L954.867 338.876L954.867 336.205L999.791 336.205ZM952.814 336.205L952.814 338.876L907.892 338.876L907.892 336.205L952.814 336.205ZM905.839 336.205L905.839 338.876L860.915 338.876L860.915 336.205L905.839 336.205ZM858.862 336.205L858.862 338.876L813.939 338.876L813.939 336.205L858.862 336.205ZM811.887 336.205L811.887 338.876L766.962 338.876L766.962 336.205L811.887 336.205ZM764.91 336.205L764.91 338.876L719.986 338.876L719.986 336.205L764.91 336.205ZM717.933 336.205L717.933 338.876L673.01 338.876L673.01 336.205L717.933 336.205ZM670.956 336.205L670.956 338.876L626.033 338.876L626.033 336.205L670.956 336.205ZM623.981 336.205L623.981 338.876L579.057 338.876L579.057 336.205L623.981 336.205ZM577.004 336.205L577.004 338.876L532.08 338.876L532.08 336.205L577.004 336.205ZM530.027 336.205L530.027 338.876L485.104 338.876L485.104 336.205L530.027 336.205ZM483.052 336.205L483.052 338.876L438.127 338.876L438.127 336.205L483.052 336.205ZM436.075 336.205L436.075 338.876L391.152 338.876L391.152 336.205L436.075 336.205ZM389.098 336.205L389.098 338.876L344.174 338.876L344.174 336.205L389.098 336.205ZM342.123 336.205L342.123 338.876L297.198 338.876L297.198 336.205L342.123 336.205ZM295.146 336.205L295.146 338.876L250.222 338.876L250.222 336.205L295.146 336.205ZM248.169 336.205L248.169 338.876L203.245 338.876L203.245 336.205L248.169 336.205ZM201.192 336.205L201.192 338.876L164.55 338.876L164.55 336.205L201.192 336.205Z" fill="#6961B6"/>
<path d="M1317.58 396.303L1317.58 398.974L1284.73 398.974L1284.73 396.303L1317.58 396.303ZM1282.68 396.303L1282.68 398.974L1237.75 398.974L1237.75 396.303L1282.68 396.303ZM1235.7 396.303L1235.7 398.974L1190.78 398.974L1190.78 396.303L1235.7 396.303ZM1188.72 396.303L1188.72 398.974L1143.8 398.974L1143.8 396.303L1188.72 396.303ZM1141.75 396.303L1141.75 398.974L1096.82 398.974L1096.82 396.303L1141.75 396.303ZM1094.77 396.303L1094.77 398.974L1049.85 398.974L1049.85 396.303L1094.77 396.303ZM1047.8 396.303L1047.8 398.974L1002.87 398.974L1002.87 396.303L1047.8 396.303ZM1000.82 396.303L1000.82 398.974L955.893 398.974L955.893 396.303L1000.82 396.303ZM953.841 396.303L953.841 398.974L908.918 398.974L908.918 396.303L953.841 396.303ZM906.865 396.303L906.865 398.974L861.941 398.974L861.941 396.303L906.865 396.303ZM859.889 396.303L859.889 398.974L814.966 398.974L814.966 396.303L859.889 396.303ZM812.913 396.303L812.913 398.974L767.989 398.974L767.989 396.303L812.913 396.303ZM765.936 396.303L765.936 398.974L721.012 398.974L721.012 396.303L765.936 396.303ZM718.959 396.303L718.959 398.974L674.037 398.974L674.037 396.303L718.959 396.303ZM671.983 396.303L671.983 398.974L627.06 398.974L627.06 396.303L671.983 396.303ZM625.007 396.303L625.007 398.974L580.083 398.974L580.083 396.303L625.007 396.303ZM578.03 396.303L578.03 398.974L533.106 398.974L533.106 396.303L578.03 396.303ZM531.054 396.303L531.054 398.974L486.131 398.974L486.131 396.303L531.054 396.303ZM484.078 396.303L484.078 398.974L439.154 398.974L439.154 396.303L484.078 396.303ZM437.101 396.303L437.101 398.974L392.178 398.974L392.178 396.303L437.101 396.303ZM390.124 396.303L390.124 398.974L345.2 398.974L345.2 396.303L390.124 396.303ZM343.149 396.303L343.149 398.974L298.225 398.974L298.225 396.303L343.149 396.303ZM296.172 396.303L296.172 398.974L251.248 398.974L251.248 396.303L296.172 396.303ZM249.195 396.303L249.195 398.974L204.271 398.974L204.271 396.303L249.195 396.303ZM202.219 396.303L202.219 398.974L165.577 398.974L165.577 396.303L202.219 396.303Z" fill="#6961B6"/>
<path d="M1320.66 456.4L1320.66 459.071L1287.81 459.071L1287.81 456.4L1320.66 456.4ZM1285.76 456.4L1285.76 459.071L1240.83 459.071L1240.83 456.4L1285.76 456.4ZM1238.78 456.4L1238.78 459.071L1193.86 459.071L1193.86 456.4L1238.78 456.4ZM1191.8 456.4L1191.8 459.071L1146.88 459.071L1146.88 456.4L1191.8 456.4ZM1144.83 456.4L1144.83 459.071L1099.9 459.071L1099.9 456.4L1144.83 456.4ZM1097.85 456.4L1097.85 459.071L1052.93 459.071L1052.93 456.4L1097.85 456.4ZM1050.87 456.4L1050.87 459.071L1005.95 459.071L1005.95 456.4L1050.87 456.4ZM1003.9 456.4L1003.9 459.071L958.972 459.071L958.972 456.4L1003.9 456.4ZM956.92 456.4L956.92 459.071L911.997 459.071L911.997 456.4L956.92 456.4ZM909.944 456.4L909.944 459.071L865.02 459.071L865.02 456.4L909.944 456.4ZM862.967 456.4L862.967 459.071L818.044 459.071L818.044 456.4L862.967 456.4ZM815.992 456.4L815.992 459.071L771.068 459.071L771.068 456.4L815.992 456.4ZM769.015 456.4L769.015 459.071L724.091 459.071L724.091 456.4L769.015 456.4ZM722.038 456.4L722.038 459.071L677.115 459.071L677.115 456.4L722.038 456.4ZM675.062 456.4L675.062 459.071L630.139 459.071L630.139 456.4L675.062 456.4ZM628.086 456.4L628.086 459.071L583.162 459.071L583.162 456.4L628.086 456.4ZM581.109 456.4L581.109 459.071L536.185 459.071L536.185 456.4L581.109 456.4ZM534.132 456.4L534.132 459.071L489.209 459.071L489.209 456.4L534.132 456.4ZM487.157 456.4L487.157 459.071L442.233 459.071L442.233 456.4L487.157 456.4ZM440.18 456.4L440.18 459.071L395.257 459.071L395.257 456.4L440.18 456.4ZM393.203 456.4L393.203 459.071L348.279 459.071L348.279 456.4L393.203 456.4ZM346.228 456.4L346.228 459.071L301.304 459.071L301.304 456.4L346.228 456.4ZM299.251 456.4L299.251 459.071L254.327 459.071L254.327 456.4L299.251 456.4ZM252.274 456.4L252.274 459.071L207.35 459.071L207.35 456.4L252.274 456.4ZM205.297 456.4L205.297 459.071L168.656 459.071L168.656 456.4L205.297 456.4Z" fill="#6961B6"/>
<path d="M1318.6 521.4L1318.6 524.071L1285.76 524.071L1285.76 521.4L1318.6 521.4ZM1283.7 521.4L1283.7 524.071L1238.78 524.071L1238.78 521.4L1283.7 521.4ZM1236.73 521.4L1236.73 524.071L1191.8 524.071L1191.8 521.4L1236.73 521.4ZM1189.75 521.4L1189.75 524.071L1144.83 524.071L1144.83 521.4L1189.75 521.4ZM1142.77 521.4L1142.77 524.071L1097.85 524.071L1097.85 521.4L1142.77 521.4ZM1095.8 521.4L1095.8 524.071L1050.87 524.071L1050.87 521.4L1095.8 521.4ZM1048.82 521.4L1048.82 524.071L1003.9 524.071L1003.9 521.4L1048.82 521.4ZM1001.84 521.4L1001.84 524.071L956.92 524.071L956.92 521.4L1001.84 521.4ZM954.867 521.4L954.867 524.071L909.944 524.071L909.944 521.4L954.867 521.4ZM907.892 521.4L907.892 524.071L862.967 524.071L862.967 521.4L907.892 521.4ZM860.915 521.4L860.915 524.071L815.992 524.071L815.992 521.4L860.915 521.4ZM813.939 521.4L813.939 524.071L769.015 524.071L769.015 521.4L813.939 521.4ZM766.963 521.4L766.963 524.071L722.038 524.071L722.038 521.4L766.963 521.4ZM719.986 521.4L719.986 524.071L675.063 524.071L675.063 521.4L719.986 521.4ZM673.009 521.4L673.009 524.071L628.086 524.071L628.086 521.4L673.009 521.4ZM626.034 521.4L626.034 524.071L581.109 524.071L581.109 521.4L626.034 521.4ZM579.057 521.4L579.057 524.071L534.132 524.071L534.132 521.4L579.057 521.4ZM532.08 521.4L532.08 524.071L487.157 524.071L487.157 521.4L532.08 521.4ZM485.104 521.4L485.104 524.071L440.18 524.071L440.18 521.4L485.104 521.4ZM438.128 521.4L438.128 524.071L393.205 524.071L393.205 521.4L438.128 521.4ZM391.151 521.4L391.151 524.071L346.227 524.071L346.227 521.4L391.151 521.4ZM344.175 521.4L344.175 524.071L299.251 524.071L299.251 521.4L344.175 521.4ZM297.199 521.4L297.199 524.071L252.274 524.071L252.274 521.4L297.199 521.4ZM250.222 521.4L250.222 524.071L205.297 524.071L205.297 521.4L250.222 521.4ZM203.245 521.4L203.245 524.071L166.603 524.071L166.603 521.4L203.245 521.4Z" fill="#6961B6"/>
<path d="M1318.6 215.742L1318.6 218.413L1285.76 218.413L1285.76 215.742L1318.6 215.742ZM1283.7 215.742L1283.7 218.413L1238.78 218.413L1238.78 215.742L1283.7 215.742ZM1236.73 215.742L1236.73 218.413L1191.8 218.413L1191.8 215.742L1236.73 215.742ZM1189.75 215.742L1189.75 218.413L1144.83 218.413L1144.83 215.742L1189.75 215.742ZM1142.77 215.742L1142.77 218.413L1097.85 218.413L1097.85 215.742L1142.77 215.742ZM1095.8 215.742L1095.8 218.413L1050.87 218.413L1050.87 215.742L1095.8 215.742ZM1048.82 215.742L1048.82 218.413L1003.9 218.413L1003.9 215.742L1048.82 215.742ZM1001.84 215.742L1001.84 218.413L956.92 218.413L956.92 215.742L1001.84 215.742ZM954.867 215.742L954.867 218.413L909.944 218.413L909.944 215.742L954.867 215.742ZM907.892 215.742L907.892 218.413L862.967 218.413L862.967 215.742L907.892 215.742ZM860.915 215.742L860.915 218.413L815.992 218.413L815.992 215.742L860.915 215.742ZM813.939 215.742L813.939 218.413L769.015 218.413L769.015 215.742L813.939 215.742ZM766.963 215.742L766.963 218.413L722.038 218.413L722.038 215.742L766.963 215.742ZM719.986 215.742L719.986 218.413L675.063 218.413L675.063 215.742L719.986 215.742ZM673.009 215.742L673.009 218.413L628.086 218.413L628.086 215.742L673.009 215.742ZM626.034 215.742L626.034 218.413L581.109 218.413L581.109 215.742L626.034 215.742ZM579.057 215.742L579.057 218.413L534.132 218.413L534.132 215.742L579.057 215.742ZM532.08 215.742L532.08 218.413L487.157 218.413L487.157 215.742L532.08 215.742ZM485.104 215.742L485.104 218.413L440.18 218.413L440.18 215.742L485.104 215.742ZM438.128 215.742L438.128 218.413L393.205 218.413L393.205 215.742L438.128 215.742ZM391.151 215.742L391.151 218.413L346.227 218.413L346.227 215.742L391.151 215.742ZM344.175 215.742L344.175 218.413L299.251 218.413L299.251 215.742L344.175 215.742ZM297.199 215.742L297.199 218.413L252.274 218.413L252.274 215.742L297.199 215.742ZM250.222 215.742L250.222 218.413L205.297 218.413L205.297 215.742L250.222 215.742ZM203.245 215.742L203.245 218.413L166.603 218.413L166.603 215.742L203.245 215.742Z" fill="#6961B6"/>
<path d="M205.297 175.007L205.297 1235L203.245 1235L203.245 175.007L205.297 175.007Z" fill="#6961B6"/>
<path d="M252.274 175.007L252.274 1235L250.222 1235L250.222 175.007L252.274 175.007Z" fill="#6961B6"/>
<path d="M487.157 175.007L487.157 1235L485.105 1235L485.105 175.007L487.157 175.007Z" fill="#6961B6"/>
<path d="M438.563 160.317L438.563 1220.31L436.511 1220.31L436.511 160.317L438.563 160.317Z" fill="#6961B6"/>
<path d="M534.133 175.007L534.133 1235L532.08 1235L532.08 175.007L534.133 175.007Z" fill="#6961B6"/>
<path d="M581.109 175.007L581.109 1235L579.057 1235L579.057 175.007L581.109 175.007Z" fill="#6961B6"/>
<path d="M628.086 175.007L628.086 1235L626.034 1235L626.034 175.007L628.086 175.007Z" fill="#6961B6"/>
<path d="M675.063 175.007L675.063 1235L673.009 1235L673.009 175.007L675.063 175.007Z" fill="#6961B6"/>
<path d="M722.038 175.007L722.038 1235L719.986 1235L719.986 175.007L722.038 175.007Z" fill="#6961B6"/>
<path d="M769.015 175.007L769.015 1235L766.963 1235L766.963 175.007L769.015 175.007Z" fill="#6961B6"/>
<path d="M815.992 175.007L815.992 1235L813.94 1235L813.94 175.007L815.992 175.007Z" fill="#6961B6"/>
<path d="M862.967 175.007L862.968 1235L860.915 1235L860.915 175.007L862.967 175.007Z" fill="#6961B6"/>
<path d="M909.944 175.007L909.944 1235L907.892 1235L907.892 175.007L909.944 175.007Z" fill="#6961B6"/>
<path d="M956.92 175.007L956.92 1235L954.867 1235L954.867 175.007L956.92 175.007Z" fill="#6961B6"/>
<path d="M1003.9 175.007L1003.9 1235L1001.84 1235L1001.84 175.007L1003.9 175.007Z" fill="#6961B6"/>
<path d="M1050.87 175.007L1050.87 1235L1048.82 1235L1048.82 175.007L1050.87 175.007Z" fill="#6961B6"/>
<path d="M1097.85 175.007L1097.85 1235L1095.8 1235L1095.8 175.007L1097.85 175.007Z" fill="#6961B6"/>
<path d="M1144.83 175.007L1144.83 1235L1142.77 1235L1142.77 175.007L1144.83 175.007Z" fill="#6961B6"/>
<path d="M1191.8 175.007L1191.8 1235L1189.75 1235L1189.75 175.007L1191.8 175.007Z" fill="#6961B6"/>
<path d="M1238.78 175.007L1238.78 1235L1236.73 1235L1236.73 175.007L1238.78 175.007Z" fill="#6961B6"/>
<path d="M1285.76 175.007L1285.76 1235L1283.7 1235L1283.7 175.007L1285.76 175.007Z" fill="#6961B6"/>
<path d="M281.211 1184.62L266.884 1193.88L252.559 1184.62L252.559 1166.11L266.884 1156.86L281.211 1166.11L281.211 1184.62Z" fill="#F2C4E5"/>
</g>
</g>
<g filter="url(#filter1_d_234_83)">
<g clip-path="url(#clip1_234_83)">
<path d="M2452 1235L2452 175.007L1286 175.007L1286 1235L2452 1235Z" fill="#5C54AF"/>
<path d="M1511.41 175.007L1511.41 1235L1509.33 1235L1509.33 175.007L1511.41 175.007Z" fill="#6961B6"/>
<path d="M1420 160.317L1420 1220.31L1417.92 1220.31L1417.92 160.317L1420 160.317Z" fill="#6961B6"/>
<path d="M1467.78 160.317L1467.78 1220.31L1465.7 1220.31L1465.7 160.317L1467.78 160.317Z" fill="#6961B6"/>
<path d="M2452 1193.85L2452 1196.52L2418.75 1196.52L2418.75 1193.85L2452 1193.85ZM2416.68 1193.85L2416.68 1196.52L2371.21 1196.52L2371.21 1193.85L2416.68 1193.85ZM2369.13 1193.85L2369.13 1196.52L2323.66 1196.52L2323.66 1193.85L2369.13 1193.85ZM2321.58 1193.85L2321.58 1196.52L2276.11 1196.52L2276.11 1193.85L2321.58 1193.85ZM2274.03 1193.85L2274.03 1196.52L2228.56 1196.52L2228.56 1193.85L2274.03 1193.85ZM2226.49 1193.85L2226.49 1196.52L2181.02 1196.52L2181.02 1193.85L2226.49 1193.85ZM2178.94 1193.85L2178.94 1196.52L2133.47 1196.52L2133.47 1193.85L2178.94 1193.85ZM2131.39 1193.85L2131.39 1196.52L2085.92 1196.52L2085.92 1193.85L2131.39 1193.85ZM2083.84 1193.85L2083.84 1196.52L2038.37 1196.52L2038.37 1193.85L2083.84 1193.85ZM2036.3 1193.85L2036.3 1196.52L1990.83 1196.52L1990.83 1193.85L2036.3 1193.85ZM1988.75 1193.85L1988.75 1196.52L1943.28 1196.52L1943.28 1193.85L1988.75 1193.85ZM1941.2 1193.85L1941.2 1196.52L1895.73 1196.52L1895.73 1193.85L1941.2 1193.85ZM1893.66 1193.85L1893.66 1196.52L1848.19 1196.52L1848.19 1193.85L1893.66 1193.85ZM1846.11 1193.85L1846.11 1196.52L1800.64 1196.52L1800.64 1193.85L1846.11 1193.85ZM1798.56 1193.85L1798.56 1196.52L1753.09 1196.52L1753.09 1193.85L1798.56 1193.85ZM1751.01 1193.85L1751.01 1196.52L1705.54 1196.52L1705.54 1193.85L1751.01 1193.85ZM1703.47 1193.85L1703.47 1196.52L1658 1196.52L1658 1193.85L1703.47 1193.85ZM1655.92 1193.85L1655.92 1196.52L1610.45 1196.52L1610.45 1193.85L1655.92 1193.85ZM1608.37 1193.85L1608.37 1196.52L1562.9 1196.52L1562.9 1193.85L1608.37 1193.85ZM1560.82 1193.85L1560.82 1196.52L1515.36 1196.52L1515.36 1193.85L1560.82 1193.85ZM1513.28 1193.85L1513.28 1196.52L1467.81 1196.52L1467.81 1193.85L1513.28 1193.85ZM1465.73 1193.85L1465.73 1196.52L1420.26 1196.52L1420.26 1193.85L1465.73 1193.85ZM1418.18 1193.85L1418.18 1196.52L1372.71 1196.52L1372.71 1193.85L1418.18 1193.85ZM1370.63 1193.85L1370.63 1196.52L1325.16 1196.52L1325.16 1193.85L1370.63 1193.85ZM1323.09 1193.85L1323.09 1196.52L1286 1196.52L1286 1193.85L1323.09 1193.85Z" fill="#6961B6"/>
<path d="M2452 1132.72L2452 1135.39L2418.75 1135.39L2418.75 1132.72L2452 1132.72ZM2416.68 1132.72L2416.68 1135.39L2371.21 1135.39L2371.21 1132.72L2416.68 1132.72ZM2369.13 1132.72L2369.13 1135.39L2323.66 1135.39L2323.66 1132.72L2369.13 1132.72ZM2321.58 1132.72L2321.58 1135.39L2276.11 1135.39L2276.11 1132.72L2321.58 1132.72ZM2274.03 1132.72L2274.03 1135.39L2228.56 1135.39L2228.56 1132.72L2274.03 1132.72ZM2226.49 1132.72L2226.49 1135.39L2181.02 1135.39L2181.02 1132.72L2226.49 1132.72ZM2178.94 1132.72L2178.94 1135.39L2133.47 1135.39L2133.47 1132.72L2178.94 1132.72ZM2131.39 1132.72L2131.39 1135.39L2085.92 1135.39L2085.92 1132.72L2131.39 1132.72ZM2083.84 1132.72L2083.84 1135.39L2038.37 1135.39L2038.37 1132.72L2083.84 1132.72ZM2036.3 1132.72L2036.3 1135.39L1990.83 1135.39L1990.83 1132.72L2036.3 1132.72ZM1988.75 1132.72L1988.75 1135.39L1943.28 1135.39L1943.28 1132.72L1988.75 1132.72ZM1941.2 1132.72L1941.2 1135.39L1895.73 1135.39L1895.73 1132.72L1941.2 1132.72ZM1893.65 1132.72L1893.65 1135.39L1848.18 1135.39L1848.18 1132.72L1893.65 1132.72ZM1846.11 1132.72L1846.11 1135.39L1800.64 1135.39L1800.64 1132.72L1846.11 1132.72ZM1798.56 1132.72L1798.56 1135.39L1753.09 1135.39L1753.09 1132.72L1798.56 1132.72ZM1751.01 1132.72L1751.01 1135.39L1705.54 1135.39L1705.54 1132.72L1751.01 1132.72ZM1703.47 1132.72L1703.47 1135.39L1658 1135.39L1658 1132.72L1703.47 1132.72ZM1655.92 1132.72L1655.92 1135.39L1610.45 1135.39L1610.45 1132.72L1655.92 1132.72ZM1608.37 1132.72L1608.37 1135.39L1562.9 1135.39L1562.9 1132.72L1608.37 1132.72ZM1560.82 1132.72L1560.82 1135.39L1515.35 1135.39L1515.35 1132.72L1560.82 1132.72ZM1513.28 1132.72L1513.28 1135.39L1467.81 1135.39L1467.81 1132.72L1513.28 1132.72ZM1465.73 1132.72L1465.73 1135.39L1420.26 1135.39L1420.26 1132.72L1465.73 1132.72ZM1418.18 1132.72L1418.18 1135.39L1372.71 1135.39L1372.71 1132.72L1418.18 1132.72ZM1370.63 1132.72L1370.63 1135.39L1325.16 1135.39L1325.16 1132.72L1370.63 1132.72ZM1323.09 1132.72L1323.09 1135.39L1286 1135.39L1286 1132.72L1323.09 1132.72Z" fill="#6961B6"/>
<path d="M2452 1071.59L2452 1074.26L2418.75 1074.26L2418.75 1071.59L2452 1071.59ZM2416.68 1071.59L2416.68 1074.26L2371.21 1074.26L2371.21 1071.59L2416.68 1071.59ZM2369.13 1071.59L2369.13 1074.26L2323.66 1074.26L2323.66 1071.59L2369.13 1071.59ZM2321.58 1071.59L2321.58 1074.26L2276.11 1074.26L2276.11 1071.59L2321.58 1071.59ZM2274.03 1071.59L2274.03 1074.26L2228.56 1074.26L2228.56 1071.59L2274.03 1071.59ZM2226.49 1071.59L2226.49 1074.26L2181.02 1074.26L2181.02 1071.59L2226.49 1071.59ZM2178.94 1071.59L2178.94 1074.26L2133.47 1074.26L2133.47 1071.59L2178.94 1071.59ZM2131.39 1071.59L2131.39 1074.26L2085.92 1074.26L2085.92 1071.59L2131.39 1071.59ZM2083.84 1071.59L2083.84 1074.26L2038.37 1074.26L2038.37 1071.59L2083.84 1071.59ZM2036.3 1071.59L2036.3 1074.26L1990.83 1074.26L1990.83 1071.59L2036.3 1071.59ZM1988.75 1071.59L1988.75 1074.26L1943.28 1074.26L1943.28 1071.59L1988.75 1071.59ZM1941.2 1071.59L1941.2 1074.26L1895.73 1074.26L1895.73 1071.59L1941.2 1071.59ZM1893.65 1071.59L1893.65 1074.26L1848.18 1074.26L1848.18 1071.59L1893.65 1071.59ZM1846.11 1071.59L1846.11 1074.26L1800.64 1074.26L1800.64 1071.59L1846.11 1071.59ZM1798.56 1071.59L1798.56 1074.26L1753.09 1074.26L1753.09 1071.59L1798.56 1071.59ZM1751.01 1071.59L1751.01 1074.26L1705.54 1074.26L1705.54 1071.59L1751.01 1071.59ZM1703.47 1071.59L1703.47 1074.26L1658 1074.26L1658 1071.59L1703.47 1071.59ZM1655.92 1071.59L1655.92 1074.26L1610.45 1074.26L1610.45 1071.59L1655.92 1071.59ZM1608.37 1071.59L1608.37 1074.26L1562.9 1074.26L1562.9 1071.59L1608.37 1071.59ZM1560.82 1071.59L1560.82 1074.26L1515.35 1074.26L1515.35 1071.59L1560.82 1071.59ZM1513.28 1071.59L1513.28 1074.26L1467.81 1074.26L1467.81 1071.59L1513.28 1071.59ZM1465.73 1071.59L1465.73 1074.26L1420.26 1074.26L1420.26 1071.59L1465.73 1071.59ZM1418.18 1071.59L1418.18 1074.26L1372.71 1074.26L1372.71 1071.59L1418.18 1071.59ZM1370.63 1071.59L1370.63 1074.26L1325.16 1074.26L1325.16 1071.59L1370.63 1071.59ZM1323.09 1071.59L1323.09 1074.26L1286 1074.26L1286 1071.59L1323.09 1071.59Z" fill="#6961B6"/>
<path d="M2452 1010.45L2452 1013.12L2418.75 1013.12L2418.75 1010.45L2452 1010.45ZM2416.68 1010.45L2416.68 1013.12L2371.21 1013.12L2371.21 1010.45L2416.68 1010.45ZM2369.13 1010.45L2369.13 1013.12L2323.66 1013.12L2323.66 1010.45L2369.13 1010.45ZM2321.58 1010.45L2321.58 1013.12L2276.11 1013.12L2276.11 1010.45L2321.58 1010.45ZM2274.03 1010.45L2274.03 1013.12L2228.56 1013.12L2228.56 1010.45L2274.03 1010.45ZM2226.49 1010.45L2226.49 1013.12L2181.02 1013.12L2181.02 1010.45L2226.49 1010.45ZM2178.94 1010.45L2178.94 1013.12L2133.47 1013.12L2133.47 1010.45L2178.94 1010.45ZM2131.39 1010.45L2131.39 1013.12L2085.92 1013.12L2085.92 1010.45L2131.39 1010.45ZM2083.84 1010.45L2083.84 1013.12L2038.37 1013.12L2038.37 1010.45L2083.84 1010.45ZM2036.3 1010.45L2036.3 1013.12L1990.83 1013.12L1990.83 1010.45L2036.3 1010.45ZM1988.75 1010.45L1988.75 1013.12L1943.28 1013.12L1943.28 1010.45L1988.75 1010.45ZM1941.2 1010.45L1941.2 1013.12L1895.73 1013.12L1895.73 1010.45L1941.2 1010.45ZM1893.65 1010.45L1893.65 1013.12L1848.18 1013.12L1848.18 1010.45L1893.65 1010.45ZM1846.11 1010.45L1846.11 1013.12L1800.64 1013.12L1800.64 1010.45L1846.11 1010.45ZM1798.56 1010.45L1798.56 1013.12L1753.09 1013.12L1753.09 1010.45L1798.56 1010.45ZM1751.01 1010.45L1751.01 1013.12L1705.54 1013.12L1705.54 1010.45L1751.01 1010.45ZM1703.47 1010.45L1703.47 1013.12L1658 1013.12L1658 1010.45L1703.47 1010.45ZM1655.92 1010.45L1655.92 1013.12L1610.45 1013.12L1610.45 1010.45L1655.92 1010.45ZM1608.37 1010.45L1608.37 1013.12L1562.9 1013.12L1562.9 1010.45L1608.37 1010.45ZM1560.82 1010.45L1560.82 1013.12L1515.35 1013.12L1515.35 1010.45L1560.82 1010.45ZM1513.28 1010.45L1513.28 1013.12L1467.81 1013.12L1467.81 1010.45L1513.28 1010.45ZM1465.73 1010.45L1465.73 1013.12L1420.26 1013.12L1420.26 1010.45L1465.73 1010.45ZM1418.18 1010.45L1418.18 1013.12L1372.71 1013.12L1372.71 1010.45L1418.18 1010.45ZM1370.63 1010.45L1370.63 1013.12L1325.16 1013.12L1325.16 1010.45L1370.63 1010.45ZM1323.09 1010.45L1323.09 1013.12L1286 1013.12L1286 1010.45L1323.09 1010.45Z" fill="#6961B6"/>
<path d="M2452 949.323L2452 951.994L2418.75 951.994L2418.75 949.323L2452 949.323ZM2416.68 949.323L2416.68 951.994L2371.21 951.994L2371.21 949.323L2416.68 949.323ZM2369.13 949.323L2369.13 951.994L2323.66 951.994L2323.66 949.323L2369.13 949.323ZM2321.58 949.323L2321.58 951.994L2276.11 951.994L2276.11 949.323L2321.58 949.323ZM2274.03 949.323L2274.03 951.994L2228.56 951.994L2228.56 949.323L2274.03 949.323ZM2226.49 949.323L2226.49 951.994L2181.02 951.994L2181.02 949.323L2226.49 949.323ZM2178.94 949.323L2178.94 951.994L2133.47 951.994L2133.47 949.323L2178.94 949.323ZM2131.39 949.323L2131.39 951.994L2085.92 951.994L2085.92 949.323L2131.39 949.323ZM2083.84 949.323L2083.84 951.994L2038.37 951.994L2038.37 949.323L2083.84 949.323ZM2036.3 949.323L2036.3 951.994L1990.83 951.994L1990.83 949.323L2036.3 949.323ZM1988.75 949.323L1988.75 951.994L1943.28 951.994L1943.28 949.323L1988.75 949.323ZM1941.2 949.323L1941.2 951.994L1895.73 951.994L1895.73 949.323L1941.2 949.323ZM1893.65 949.323L1893.65 951.994L1848.18 951.994L1848.18 949.323L1893.65 949.323ZM1846.11 949.323L1846.11 951.994L1800.64 951.994L1800.64 949.323L1846.11 949.323ZM1798.56 949.323L1798.56 951.994L1753.09 951.994L1753.09 949.323L1798.56 949.323ZM1751.01 949.323L1751.01 951.994L1705.54 951.994L1705.54 949.323L1751.01 949.323ZM1703.47 949.323L1703.47 951.994L1658 951.994L1658 949.323L1703.47 949.323ZM1655.92 949.323L1655.92 951.994L1610.45 951.994L1610.45 949.323L1655.92 949.323ZM1608.37 949.323L1608.37 951.994L1562.9 951.994L1562.9 949.323L1608.37 949.323ZM1560.82 949.323L1560.82 951.994L1515.35 951.994L1515.35 949.323L1560.82 949.323ZM1513.28 949.323L1513.28 951.994L1467.81 951.994L1467.81 949.323L1513.28 949.323ZM1465.73 949.323L1465.73 951.994L1420.26 951.994L1420.26 949.323L1465.73 949.323ZM1418.18 949.323L1418.18 951.994L1372.71 951.994L1372.71 949.323L1418.18 949.323ZM1370.63 949.323L1370.63 951.994L1325.16 951.994L1325.16 949.323L1370.63 949.323ZM1323.09 949.323L1323.09 951.994L1286 951.994L1286 949.323L1323.09 949.323Z" fill="#6961B6"/>
<path d="M2452 888.19L2452 890.861L2418.75 890.861L2418.75 888.19L2452 888.19ZM2416.68 888.19L2416.68 890.861L2371.21 890.861L2371.21 888.19L2416.68 888.19ZM2369.13 888.19L2369.13 890.861L2323.66 890.861L2323.66 888.19L2369.13 888.19ZM2321.58 888.19L2321.58 890.861L2276.11 890.861L2276.11 888.19L2321.58 888.19ZM2274.03 888.19L2274.03 890.861L2228.56 890.861L2228.56 888.19L2274.03 888.19ZM2226.49 888.19L2226.49 890.861L2181.02 890.861L2181.02 888.19L2226.49 888.19ZM2178.94 888.19L2178.94 890.861L2133.47 890.861L2133.47 888.19L2178.94 888.19ZM2131.39 888.19L2131.39 890.861L2085.92 890.861L2085.92 888.19L2131.39 888.19ZM2083.84 888.19L2083.84 890.861L2038.37 890.861L2038.37 888.19L2083.84 888.19ZM2036.3 888.19L2036.3 890.861L1990.83 890.861L1990.83 888.19L2036.3 888.19ZM1988.75 888.19L1988.75 890.861L1943.28 890.861L1943.28 888.19L1988.75 888.19ZM1941.2 888.19L1941.2 890.861L1895.73 890.861L1895.73 888.19L1941.2 888.19ZM1893.65 888.19L1893.65 890.861L1848.18 890.861L1848.18 888.19L1893.65 888.19ZM1846.11 888.19L1846.11 890.861L1800.64 890.861L1800.64 888.19L1846.11 888.19ZM1798.56 888.19L1798.56 890.861L1753.09 890.861L1753.09 888.19L1798.56 888.19ZM1751.01 888.19L1751.01 890.861L1705.54 890.861L1705.54 888.19L1751.01 888.19ZM1703.47 888.19L1703.47 890.861L1658 890.861L1658 888.19L1703.47 888.19ZM1655.92 888.19L1655.92 890.861L1610.45 890.861L1610.45 888.19L1655.92 888.19ZM1608.37 888.19L1608.37 890.861L1562.9 890.861L1562.9 888.19L1608.37 888.19ZM1560.82 888.19L1560.82 890.861L1515.35 890.861L1515.35 888.19L1560.82 888.19ZM1513.28 888.19L1513.28 890.861L1467.81 890.861L1467.81 888.19L1513.28 888.19ZM1465.73 888.19L1465.73 890.861L1420.26 890.861L1420.26 888.19L1465.73 888.19ZM1418.18 888.19L1418.18 890.861L1372.71 890.861L1372.71 888.19L1418.18 888.19ZM1370.63 888.19L1370.63 890.861L1325.16 890.861L1325.16 888.19L1370.63 888.19ZM1323.09 888.19L1323.09 890.861L1286 890.861L1286 888.19L1323.09 888.19Z" fill="#6961B6"/>
<path d="M2452 827.06L2452 829.731L2418.75 829.731L2418.75 827.06L2452 827.06ZM2416.68 827.06L2416.68 829.731L2371.21 829.731L2371.21 827.06L2416.68 827.06ZM2369.13 827.06L2369.13 829.731L2323.66 829.731L2323.66 827.06L2369.13 827.06ZM2321.58 827.06L2321.58 829.731L2276.11 829.731L2276.11 827.06L2321.58 827.06ZM2274.03 827.06L2274.03 829.731L2228.56 829.731L2228.56 827.06L2274.03 827.06ZM2226.49 827.06L2226.49 829.731L2181.02 829.731L2181.02 827.06L2226.49 827.06ZM2178.94 827.06L2178.94 829.731L2133.47 829.731L2133.47 827.06L2178.94 827.06ZM2131.39 827.06L2131.39 829.731L2085.92 829.731L2085.92 827.06L2131.39 827.06ZM2083.84 827.06L2083.84 829.731L2038.37 829.731L2038.37 827.06L2083.84 827.06ZM2036.3 827.06L2036.3 829.731L1990.83 829.731L1990.83 827.06L2036.3 827.06ZM1988.75 827.06L1988.75 829.731L1943.28 829.731L1943.28 827.06L1988.75 827.06ZM1941.2 827.06L1941.2 829.731L1895.73 829.731L1895.73 827.06L1941.2 827.06ZM1893.65 827.06L1893.65 829.731L1848.18 829.731L1848.18 827.06L1893.65 827.06ZM1846.11 827.06L1846.11 829.731L1800.64 829.731L1800.64 827.06L1846.11 827.06ZM1798.56 827.06L1798.56 829.731L1753.09 829.731L1753.09 827.06L1798.56 827.06ZM1751.01 827.06L1751.01 829.731L1705.54 829.731L1705.54 827.06L1751.01 827.06ZM1703.47 827.06L1703.47 829.731L1658 829.731L1658 827.06L1703.47 827.06ZM1655.92 827.06L1655.92 829.731L1610.45 829.731L1610.45 827.06L1655.92 827.06ZM1608.37 827.06L1608.37 829.731L1562.9 829.731L1562.9 827.06L1608.37 827.06ZM1560.82 827.06L1560.82 829.731L1515.35 829.731L1515.35 827.06L1560.82 827.06ZM1513.28 827.06L1513.28 829.731L1467.81 829.732L1467.81 827.06L1513.28 827.06ZM1465.73 827.06L1465.73 829.732L1420.26 829.732L1420.26 827.06L1465.73 827.06ZM1418.18 827.06L1418.18 829.732L1372.71 829.732L1372.71 827.06L1418.18 827.06ZM1370.63 827.06L1370.63 829.732L1325.16 829.732L1325.16 827.06L1370.63 827.06ZM1323.09 827.06L1323.09 829.732L1286 829.732L1286 827.06L1323.09 827.06Z" fill="#6961B6"/>
<path d="M2452 765.928L2452 768.599L2418.75 768.599L2418.75 765.928L2452 765.928ZM2416.68 765.928L2416.68 768.599L2371.21 768.599L2371.21 765.928L2416.68 765.928ZM2369.13 765.928L2369.13 768.599L2323.66 768.599L2323.66 765.928L2369.13 765.928ZM2321.58 765.928L2321.58 768.599L2276.11 768.599L2276.11 765.928L2321.58 765.928ZM2274.03 765.928L2274.03 768.599L2228.56 768.599L2228.56 765.928L2274.03 765.928ZM2226.49 765.928L2226.49 768.599L2181.02 768.599L2181.02 765.928L2226.49 765.928ZM2178.94 765.928L2178.94 768.599L2133.47 768.599L2133.47 765.928L2178.94 765.928ZM2131.39 765.928L2131.39 768.599L2085.92 768.599L2085.92 765.928L2131.39 765.928ZM2083.84 765.928L2083.84 768.599L2038.37 768.599L2038.37 765.928L2083.84 765.928ZM2036.3 765.928L2036.3 768.599L1990.83 768.599L1990.83 765.928L2036.3 765.928ZM1988.75 765.928L1988.75 768.599L1943.28 768.599L1943.28 765.928L1988.75 765.928ZM1941.2 765.928L1941.2 768.599L1895.73 768.599L1895.73 765.928L1941.2 765.928ZM1893.65 765.928L1893.65 768.599L1848.18 768.599L1848.18 765.928L1893.65 765.928ZM1846.11 765.928L1846.11 768.599L1800.64 768.599L1800.64 765.928L1846.11 765.928ZM1798.56 765.928L1798.56 768.599L1753.09 768.599L1753.09 765.928L1798.56 765.928ZM1751.01 765.928L1751.01 768.599L1705.54 768.599L1705.54 765.928L1751.01 765.928ZM1703.47 765.928L1703.47 768.599L1658 768.599L1658 765.928L1703.47 765.928ZM1655.92 765.928L1655.92 768.599L1610.45 768.599L1610.45 765.928L1655.92 765.928ZM1608.37 765.928L1608.37 768.599L1562.9 768.599L1562.9 765.928L1608.37 765.928ZM1560.82 765.928L1560.82 768.599L1515.35 768.599L1515.35 765.928L1560.82 765.928ZM1513.28 765.928L1513.28 768.599L1467.81 768.599L1467.81 765.928L1513.28 765.928ZM1465.73 765.928L1465.73 768.599L1420.26 768.599L1420.26 765.928L1465.73 765.928ZM1418.18 765.928L1418.18 768.599L1372.71 768.599L1372.71 765.928L1418.18 765.928ZM1370.63 765.928L1370.63 768.599L1325.16 768.599L1325.16 765.928L1370.63 765.928ZM1323.09 765.928L1323.09 768.599L1286 768.599L1286 765.928L1323.09 765.928Z" fill="#6961B6"/>
<path d="M2452 704.795L2452 707.466L2418.75 707.466L2418.75 704.795L2452 704.795ZM2416.68 704.795L2416.68 707.466L2371.21 707.466L2371.21 704.795L2416.68 704.795ZM2369.13 704.795L2369.13 707.466L2323.66 707.466L2323.66 704.795L2369.13 704.795ZM2321.58 704.795L2321.58 707.466L2276.11 707.466L2276.11 704.795L2321.58 704.795ZM2274.03 704.795L2274.03 707.466L2228.56 707.466L2228.56 704.795L2274.03 704.795ZM2226.49 704.795L2226.49 707.466L2181.02 707.466L2181.02 704.795L2226.49 704.795ZM2178.94 704.795L2178.94 707.466L2133.47 707.466L2133.47 704.795L2178.94 704.795ZM2131.39 704.795L2131.39 707.466L2085.92 707.466L2085.92 704.795L2131.39 704.795ZM2083.84 704.795L2083.84 707.466L2038.37 707.466L2038.37 704.795L2083.84 704.795ZM2036.3 704.795L2036.3 707.466L1990.83 707.466L1990.83 704.795L2036.3 704.795ZM1988.75 704.795L1988.75 707.466L1943.28 707.466L1943.28 704.795L1988.75 704.795ZM1941.2 704.795L1941.2 707.466L1895.73 707.466L1895.73 704.795L1941.2 704.795ZM1893.65 704.795L1893.65 707.466L1848.18 707.466L1848.18 704.795L1893.65 704.795ZM1846.11 704.795L1846.11 707.466L1800.64 707.466L1800.64 704.795L1846.11 704.795ZM1798.56 704.795L1798.56 707.466L1753.09 707.466L1753.09 704.795L1798.56 704.795ZM1751.01 704.795L1751.01 707.466L1705.54 707.466L1705.54 704.795L1751.01 704.795ZM1703.47 704.795L1703.47 707.466L1658 707.466L1658 704.795L1703.47 704.795ZM1655.92 704.795L1655.92 707.466L1610.45 707.466L1610.45 704.795L1655.92 704.795ZM1608.37 704.795L1608.37 707.466L1562.9 707.466L1562.9 704.795L1608.37 704.795ZM1560.82 704.795L1560.82 707.466L1515.35 707.466L1515.35 704.795L1560.82 704.795ZM1513.28 704.795L1513.28 707.466L1467.81 707.466L1467.81 704.795L1513.28 704.795ZM1465.73 704.795L1465.73 707.466L1420.26 707.466L1420.26 704.795L1465.73 704.795ZM1418.18 704.795L1418.18 707.466L1372.71 707.466L1372.71 704.795L1418.18 704.795ZM1370.63 704.795L1370.63 707.466L1325.16 707.466L1325.16 704.795L1370.63 704.795ZM1323.09 704.795L1323.09 707.466L1286 707.466L1286 704.795L1323.09 704.795Z" fill="#6961B6"/>
<path d="M2452 643.663L2452 646.334L2418.75 646.334L2418.75 643.663L2452 643.663ZM2416.68 643.663L2416.68 646.334L2371.21 646.334L2371.21 643.663L2416.68 643.663ZM2369.13 643.663L2369.13 646.334L2323.66 646.334L2323.66 643.663L2369.13 643.663ZM2321.58 643.663L2321.58 646.334L2276.11 646.334L2276.11 643.663L2321.58 643.663ZM2274.03 643.663L2274.03 646.334L2228.56 646.334L2228.56 643.663L2274.03 643.663ZM2226.49 643.663L2226.49 646.334L2181.02 646.334L2181.02 643.663L2226.49 643.663ZM2178.94 643.663L2178.94 646.334L2133.47 646.334L2133.47 643.663L2178.94 643.663ZM2131.39 643.663L2131.39 646.334L2085.92 646.334L2085.92 643.663L2131.39 643.663ZM2083.84 643.663L2083.84 646.334L2038.37 646.334L2038.37 643.663L2083.84 643.663ZM2036.3 643.663L2036.3 646.334L1990.83 646.334L1990.83 643.663L2036.3 643.663ZM1988.75 643.663L1988.75 646.334L1943.28 646.334L1943.28 643.663L1988.75 643.663ZM1941.2 643.663L1941.2 646.334L1895.73 646.334L1895.73 643.663L1941.2 643.663ZM1893.65 643.663L1893.65 646.334L1848.18 646.334L1848.18 643.663L1893.65 643.663ZM1846.11 643.663L1846.11 646.334L1800.64 646.334L1800.64 643.663L1846.11 643.663ZM1798.56 643.663L1798.56 646.334L1753.09 646.334L1753.09 643.663L1798.56 643.663ZM1751.01 643.663L1751.01 646.334L1705.54 646.334L1705.54 643.663L1751.01 643.663ZM1703.47 643.663L1703.47 646.334L1658 646.334L1658 643.663L1703.47 643.663ZM1655.92 643.663L1655.92 646.334L1610.45 646.334L1610.45 643.663L1655.92 643.663ZM1608.37 643.663L1608.37 646.334L1562.9 646.334L1562.9 643.663L1608.37 643.663ZM1560.82 643.663L1560.82 646.334L1515.35 646.334L1515.35 643.663L1560.82 643.663ZM1513.28 643.663L1513.28 646.334L1467.81 646.334L1467.81 643.663L1513.28 643.663ZM1465.73 643.663L1465.73 646.334L1420.26 646.334L1420.26 643.663L1465.73 643.663ZM1418.18 643.663L1418.18 646.334L1372.71 646.334L1372.71 643.663L1418.18 643.663ZM1370.63 643.663L1370.63 646.334L1325.16 646.334L1325.16 643.663L1370.63 643.663ZM1323.09 643.663L1323.09 646.334L1286 646.334L1286 643.663L1323.09 643.663Z" fill="#6961B6"/>
<path d="M2452 582.532L2452 585.203L2418.75 585.203L2418.75 582.532L2452 582.532ZM2416.68 582.532L2416.68 585.203L2371.21 585.203L2371.21 582.532L2416.68 582.532ZM2369.13 582.532L2369.13 585.203L2323.66 585.203L2323.66 582.532L2369.13 582.532ZM2321.58 582.532L2321.58 585.203L2276.11 585.203L2276.11 582.532L2321.58 582.532ZM2274.03 582.532L2274.03 585.203L2228.56 585.203L2228.56 582.532L2274.03 582.532ZM2226.49 582.532L2226.49 585.203L2181.02 585.203L2181.02 582.532L2226.49 582.532ZM2178.94 582.532L2178.94 585.203L2133.47 585.203L2133.47 582.532L2178.94 582.532ZM2131.39 582.532L2131.39 585.203L2085.92 585.203L2085.92 582.532L2131.39 582.532ZM2083.84 582.532L2083.84 585.203L2038.37 585.203L2038.37 582.532L2083.84 582.532ZM2036.3 582.532L2036.3 585.203L1990.83 585.203L1990.83 582.532L2036.3 582.532ZM1988.75 582.532L1988.75 585.203L1943.28 585.203L1943.28 582.532L1988.75 582.532ZM1941.2 582.532L1941.2 585.203L1895.73 585.203L1895.73 582.532L1941.2 582.532ZM1893.65 582.532L1893.65 585.203L1848.18 585.203L1848.18 582.532L1893.65 582.532ZM1846.11 582.532L1846.11 585.203L1800.64 585.203L1800.64 582.532L1846.11 582.532ZM1798.56 582.532L1798.56 585.203L1753.09 585.203L1753.09 582.532L1798.56 582.532ZM1751.01 582.532L1751.01 585.203L1705.54 585.203L1705.54 582.532L1751.01 582.532ZM1703.47 582.532L1703.47 585.203L1658 585.203L1658 582.532L1703.47 582.532ZM1655.92 582.532L1655.92 585.203L1610.45 585.203L1610.45 582.532L1655.92 582.532ZM1608.37 582.532L1608.37 585.203L1562.9 585.203L1562.9 582.532L1608.37 582.532ZM1560.82 582.532L1560.82 585.203L1515.35 585.203L1515.35 582.532L1560.82 582.532ZM1513.28 582.532L1513.28 585.203L1467.81 585.203L1467.81 582.532L1513.28 582.532ZM1465.73 582.532L1465.73 585.203L1420.26 585.203L1420.26 582.532L1465.73 582.532ZM1418.18 582.532L1418.18 585.203L1372.71 585.203L1372.71 582.532L1418.18 582.532ZM1370.63 582.532L1370.63 585.203L1325.16 585.203L1325.16 582.532L1370.63 582.532ZM1323.09 582.532L1323.09 585.203L1286 585.203L1286 582.532L1323.09 582.532Z" fill="#6961B6"/>
<path d="M2452 276.106L2452 278.777L2418.75 278.777L2418.75 276.106L2452 276.106ZM2416.68 276.106L2416.68 278.777L2371.21 278.777L2371.21 276.106L2416.68 276.106ZM2369.13 276.106L2369.13 278.777L2323.66 278.777L2323.66 276.106L2369.13 276.106ZM2321.58 276.106L2321.58 278.777L2276.11 278.777L2276.11 276.106L2321.58 276.106ZM2274.03 276.106L2274.03 278.777L2228.56 278.777L2228.56 276.106L2274.03 276.106ZM2226.49 276.106L2226.49 278.777L2181.02 278.777L2181.02 276.106L2226.49 276.106ZM2178.94 276.106L2178.94 278.777L2133.47 278.777L2133.47 276.106L2178.94 276.106ZM2131.39 276.106L2131.39 278.777L2085.92 278.777L2085.92 276.106L2131.39 276.106ZM2083.84 276.106L2083.84 278.777L2038.37 278.777L2038.37 276.106L2083.84 276.106ZM2036.3 276.106L2036.3 278.777L1990.83 278.777L1990.83 276.106L2036.3 276.106ZM1988.75 276.106L1988.75 278.777L1943.28 278.777L1943.28 276.106L1988.75 276.106ZM1941.2 276.106L1941.2 278.777L1895.73 278.777L1895.73 276.106L1941.2 276.106ZM1893.65 276.106L1893.65 278.777L1848.18 278.777L1848.18 276.106L1893.65 276.106ZM1846.11 276.106L1846.11 278.777L1800.64 278.777L1800.64 276.106L1846.11 276.106ZM1798.56 276.106L1798.56 278.777L1753.09 278.777L1753.09 276.106L1798.56 276.106ZM1751.01 276.106L1751.01 278.777L1705.54 278.777L1705.54 276.106L1751.01 276.106ZM1703.47 276.106L1703.47 278.777L1658 278.777L1658 276.106L1703.47 276.106ZM1655.92 276.106L1655.92 278.777L1610.45 278.777L1610.45 276.106L1655.92 276.106ZM1608.37 276.106L1608.37 278.777L1562.9 278.777L1562.9 276.106L1608.37 276.106ZM1560.82 276.106L1560.82 278.777L1515.35 278.777L1515.35 276.106L1560.82 276.106ZM1513.28 276.106L1513.28 278.777L1467.81 278.777L1467.81 276.106L1513.28 276.106ZM1465.73 276.106L1465.73 278.777L1420.26 278.777L1420.26 276.106L1465.73 276.106ZM1418.18 276.106L1418.18 278.777L1372.71 278.777L1372.71 276.106L1418.18 276.106ZM1370.63 276.106L1370.63 278.777L1325.16 278.777L1325.16 276.106L1370.63 276.106ZM1323.09 276.106L1323.09 278.777L1286 278.777L1286 276.106L1323.09 276.106Z" fill="#6961B6"/>
<path d="M2449.92 336.205L2449.92 338.876L2416.68 338.876L2416.68 336.205L2449.92 336.205ZM2414.6 336.205L2414.6 338.876L2369.13 338.876L2369.13 336.205L2414.6 336.205ZM2367.05 336.205L2367.05 338.876L2321.58 338.876L2321.58 336.205L2367.05 336.205ZM2319.5 336.205L2319.5 338.876L2274.03 338.876L2274.03 336.205L2319.5 336.205ZM2271.96 336.205L2271.96 338.876L2226.48 338.876L2226.48 336.205L2271.96 336.205ZM2224.41 336.205L2224.41 338.876L2178.94 338.876L2178.94 336.205L2224.41 336.205ZM2176.86 336.205L2176.86 338.876L2131.39 338.876L2131.39 336.205L2176.86 336.205ZM2129.31 336.205L2129.31 338.876L2083.84 338.876L2083.84 336.205L2129.31 336.205ZM2081.77 336.205L2081.77 338.876L2036.3 338.876L2036.3 336.205L2081.77 336.205ZM2034.22 336.205L2034.22 338.876L1988.75 338.876L1988.75 336.205L2034.22 336.205ZM1986.67 336.205L1986.67 338.876L1941.2 338.876L1941.2 336.205L1986.67 336.205ZM1939.12 336.205L1939.12 338.876L1893.65 338.876L1893.65 336.205L1939.12 336.205ZM1891.58 336.205L1891.58 338.876L1846.11 338.876L1846.11 336.205L1891.58 336.205ZM1844.03 336.205L1844.03 338.876L1798.56 338.876L1798.56 336.205L1844.03 336.205ZM1796.48 336.205L1796.48 338.876L1751.01 338.876L1751.01 336.205L1796.48 336.205ZM1748.94 336.205L1748.94 338.876L1703.47 338.876L1703.47 336.205L1748.94 336.205ZM1701.39 336.205L1701.39 338.876L1655.92 338.876L1655.92 336.205L1701.39 336.205ZM1653.84 336.205L1653.84 338.876L1608.37 338.876L1608.37 336.205L1653.84 336.205ZM1606.29 336.205L1606.29 338.876L1560.82 338.876L1560.82 336.205L1606.29 336.205ZM1558.75 336.205L1558.75 338.876L1513.28 338.876L1513.28 336.205L1558.75 336.205ZM1511.2 336.205L1511.2 338.876L1465.73 338.876L1465.73 336.205L1511.2 336.205ZM1463.65 336.205L1463.65 338.876L1418.18 338.876L1418.18 336.205L1463.65 336.205ZM1416.1 336.205L1416.1 338.876L1370.63 338.876L1370.63 336.205L1416.1 336.205ZM1368.56 336.205L1368.56 338.876L1323.09 338.876L1323.09 336.205L1368.56 336.205ZM1321.01 336.205L1321.01 338.876L1283.92 338.876L1283.92 336.205L1321.01 336.205Z" fill="#6961B6"/>
<path d="M2450.96 396.303L2450.96 398.974L2417.71 398.974L2417.71 396.303L2450.96 396.303ZM2415.64 396.303L2415.64 398.974L2370.17 398.974L2370.17 396.303L2415.64 396.303ZM2368.09 396.303L2368.09 398.974L2322.62 398.974L2322.62 396.303L2368.09 396.303ZM2320.54 396.303L2320.54 398.974L2275.07 398.974L2275.07 396.303L2320.54 396.303ZM2273 396.303L2273 398.974L2227.52 398.974L2227.52 396.303L2273 396.303ZM2225.45 396.303L2225.45 398.974L2179.98 398.974L2179.98 396.303L2225.45 396.303ZM2177.9 396.303L2177.9 398.974L2132.43 398.974L2132.43 396.303L2177.9 396.303ZM2130.35 396.303L2130.35 398.974L2084.88 398.974L2084.88 396.303L2130.35 396.303ZM2082.8 396.303L2082.8 398.974L2037.34 398.974L2037.34 396.303L2082.8 396.303ZM2035.26 396.303L2035.26 398.974L1989.79 398.974L1989.79 396.303L2035.26 396.303ZM1987.71 396.303L1987.71 398.974L1942.24 398.974L1942.24 396.303L1987.71 396.303ZM1940.16 396.303L1940.16 398.974L1894.69 398.974L1894.69 396.303L1940.16 396.303ZM1892.62 396.303L1892.62 398.974L1847.15 398.974L1847.15 396.303L1892.62 396.303ZM1845.07 396.303L1845.07 398.974L1799.6 398.974L1799.6 396.303L1845.07 396.303ZM1797.52 396.303L1797.52 398.974L1752.05 398.974L1752.05 396.303L1797.52 396.303ZM1749.97 396.303L1749.97 398.974L1704.5 398.974L1704.5 396.303L1749.97 396.303ZM1702.43 396.303L1702.43 398.974L1656.96 398.974L1656.96 396.303L1702.43 396.303ZM1654.88 396.303L1654.88 398.974L1609.41 398.974L1609.41 396.303L1654.88 396.303ZM1607.33 396.303L1607.33 398.974L1561.86 398.974L1561.86 396.303L1607.33 396.303ZM1559.79 396.303L1559.79 398.974L1514.32 398.974L1514.32 396.303L1559.79 396.303ZM1512.24 396.303L1512.24 398.974L1466.77 398.974L1466.77 396.303L1512.24 396.303ZM1464.69 396.303L1464.69 398.974L1419.22 398.974L1419.22 396.303L1464.69 396.303ZM1417.14 396.303L1417.14 398.974L1371.67 398.974L1371.67 396.303L1417.14 396.303ZM1369.6 396.303L1369.6 398.974L1324.13 398.974L1324.13 396.303L1369.6 396.303ZM1322.05 396.303L1322.05 398.974L1284.96 398.974L1284.96 396.303L1322.05 396.303Z" fill="#6961B6"/>
<path d="M2454.08 456.4L2454.08 459.071L2420.83 459.071L2420.83 456.4L2454.08 456.4ZM2418.75 456.4L2418.75 459.071L2373.28 459.071L2373.28 456.4L2418.75 456.4ZM2371.21 456.4L2371.21 459.071L2325.74 459.071L2325.74 456.4L2371.21 456.4ZM2323.66 456.4L2323.66 459.071L2278.19 459.071L2278.19 456.4L2323.66 456.4ZM2276.11 456.4L2276.11 459.071L2230.64 459.071L2230.64 456.4L2276.11 456.4ZM2228.56 456.4L2228.56 459.071L2183.09 459.071L2183.09 456.4L2228.56 456.4ZM2181.02 456.4L2181.02 459.071L2135.55 459.071L2135.55 456.4L2181.02 456.4ZM2133.47 456.4L2133.47 459.071L2088 459.071L2088 456.4L2133.47 456.4ZM2085.92 456.4L2085.92 459.071L2040.45 459.071L2040.45 456.4L2085.92 456.4ZM2038.37 456.4L2038.37 459.071L1992.9 459.071L1992.9 456.4L2038.37 456.4ZM1990.83 456.4L1990.83 459.071L1945.36 459.071L1945.36 456.4L1990.83 456.4ZM1943.28 456.4L1943.28 459.071L1897.81 459.071L1897.81 456.4L1943.28 456.4ZM1895.73 456.4L1895.73 459.071L1850.26 459.071L1850.26 456.4L1895.73 456.4ZM1848.18 456.4L1848.18 459.071L1802.72 459.071L1802.72 456.4L1848.18 456.4ZM1800.64 456.4L1800.64 459.071L1755.17 459.071L1755.17 456.4L1800.64 456.4ZM1753.09 456.4L1753.09 459.071L1707.62 459.071L1707.62 456.4L1753.09 456.4ZM1705.54 456.4L1705.54 459.071L1660.07 459.071L1660.07 456.4L1705.54 456.4ZM1658 456.4L1658 459.071L1612.53 459.071L1612.53 456.4L1658 456.4ZM1610.45 456.4L1610.45 459.071L1564.98 459.071L1564.98 456.4L1610.45 456.4ZM1562.9 456.4L1562.9 459.071L1517.43 459.071L1517.43 456.4L1562.9 456.4ZM1515.35 456.4L1515.35 459.071L1469.88 459.071L1469.88 456.4L1515.35 456.4ZM1467.81 456.4L1467.81 459.071L1422.34 459.071L1422.34 456.4L1467.81 456.4ZM1420.26 456.4L1420.26 459.071L1374.79 459.071L1374.79 456.4L1420.26 456.4ZM1372.71 456.4L1372.71 459.071L1327.24 459.071L1327.24 456.4L1372.71 456.4ZM1325.16 456.4L1325.16 459.071L1288.08 459.071L1288.08 456.4L1325.16 456.4Z" fill="#6961B6"/>
<path d="M2452 521.4L2452 524.071L2418.75 524.071L2418.75 521.4L2452 521.4ZM2416.68 521.4L2416.68 524.071L2371.21 524.071L2371.21 521.4L2416.68 521.4ZM2369.13 521.4L2369.13 524.071L2323.66 524.071L2323.66 521.4L2369.13 521.4ZM2321.58 521.4L2321.58 524.071L2276.11 524.071L2276.11 521.4L2321.58 521.4ZM2274.03 521.4L2274.03 524.071L2228.56 524.071L2228.56 521.4L2274.03 521.4ZM2226.49 521.4L2226.49 524.071L2181.02 524.071L2181.02 521.4L2226.49 521.4ZM2178.94 521.4L2178.94 524.071L2133.47 524.071L2133.47 521.4L2178.94 521.4ZM2131.39 521.4L2131.39 524.071L2085.92 524.071L2085.92 521.4L2131.39 521.4ZM2083.84 521.4L2083.84 524.071L2038.37 524.071L2038.37 521.4L2083.84 521.4ZM2036.3 521.4L2036.3 524.071L1990.83 524.071L1990.83 521.4L2036.3 521.4ZM1988.75 521.4L1988.75 524.071L1943.28 524.071L1943.28 521.4L1988.75 521.4ZM1941.2 521.4L1941.2 524.071L1895.73 524.071L1895.73 521.4L1941.2 521.4ZM1893.65 521.4L1893.65 524.071L1848.18 524.071L1848.18 521.4L1893.65 521.4ZM1846.11 521.4L1846.11 524.071L1800.64 524.071L1800.64 521.4L1846.11 521.4ZM1798.56 521.4L1798.56 524.071L1753.09 524.071L1753.09 521.4L1798.56 521.4ZM1751.01 521.4L1751.01 524.071L1705.54 524.071L1705.54 521.4L1751.01 521.4ZM1703.47 521.4L1703.47 524.071L1658 524.071L1658 521.4L1703.47 521.4ZM1655.92 521.4L1655.92 524.071L1610.45 524.071L1610.45 521.4L1655.92 521.4ZM1608.37 521.4L1608.37 524.071L1562.9 524.071L1562.9 521.4L1608.37 521.4ZM1560.82 521.4L1560.82 524.071L1515.35 524.071L1515.35 521.4L1560.82 521.4ZM1513.28 521.4L1513.28 524.071L1467.81 524.071L1467.81 521.4L1513.28 521.4ZM1465.73 521.4L1465.73 524.071L1420.26 524.071L1420.26 521.4L1465.73 521.4ZM1418.18 521.4L1418.18 524.071L1372.71 524.071L1372.71 521.4L1418.18 521.4ZM1370.63 521.4L1370.63 524.071L1325.16 524.071L1325.16 521.4L1370.63 521.4ZM1323.09 521.4L1323.09 524.071L1286 524.071L1286 521.4L1323.09 521.4Z" fill="#6961B6"/>
<path d="M2452 215.742L2452 218.413L2418.75 218.413L2418.75 215.742L2452 215.742ZM2416.68 215.742L2416.68 218.413L2371.21 218.413L2371.21 215.742L2416.68 215.742ZM2369.13 215.742L2369.13 218.413L2323.66 218.413L2323.66 215.742L2369.13 215.742ZM2321.58 215.742L2321.58 218.413L2276.11 218.413L2276.11 215.742L2321.58 215.742ZM2274.03 215.742L2274.03 218.413L2228.56 218.413L2228.56 215.742L2274.03 215.742ZM2226.49 215.742L2226.49 218.413L2181.02 218.413L2181.02 215.742L2226.49 215.742ZM2178.94 215.742L2178.94 218.413L2133.47 218.413L2133.47 215.742L2178.94 215.742ZM2131.39 215.742L2131.39 218.413L2085.92 218.413L2085.92 215.742L2131.39 215.742ZM2083.84 215.742L2083.84 218.413L2038.37 218.413L2038.37 215.742L2083.84 215.742ZM2036.3 215.742L2036.3 218.413L1990.83 218.413L1990.83 215.742L2036.3 215.742ZM1988.75 215.742L1988.75 218.413L1943.28 218.413L1943.28 215.742L1988.75 215.742ZM1941.2 215.742L1941.2 218.413L1895.73 218.413L1895.73 215.742L1941.2 215.742ZM1893.65 215.742L1893.65 218.413L1848.18 218.413L1848.18 215.742L1893.65 215.742ZM1846.11 215.742L1846.11 218.413L1800.64 218.413L1800.64 215.742L1846.11 215.742ZM1798.56 215.742L1798.56 218.413L1753.09 218.413L1753.09 215.742L1798.56 215.742ZM1751.01 215.742L1751.01 218.413L1705.54 218.413L1705.54 215.742L1751.01 215.742ZM1703.47 215.742L1703.47 218.413L1658 218.413L1658 215.742L1703.47 215.742ZM1655.92 215.742L1655.92 218.413L1610.45 218.413L1610.45 215.742L1655.92 215.742ZM1608.37 215.742L1608.37 218.413L1562.9 218.413L1562.9 215.742L1608.37 215.742ZM1560.82 215.742L1560.82 218.413L1515.35 218.413L1515.35 215.742L1560.82 215.742ZM1513.28 215.742L1513.28 218.413L1467.81 218.413L1467.81 215.742L1513.28 215.742ZM1465.73 215.742L1465.73 218.413L1420.26 218.413L1420.26 215.742L1465.73 215.742ZM1418.18 215.742L1418.18 218.413L1372.71 218.413L1372.71 215.742L1418.18 215.742ZM1370.63 215.742L1370.63 218.413L1325.16 218.413L1325.16 215.742L1370.63 215.742ZM1323.09 215.742L1323.09 218.413L1286 218.413L1286 215.742L1323.09 215.742Z" fill="#6961B6"/>
<path d="M1325.16 175.007L1325.16 1235L1323.09 1235L1323.09 175.007L1325.16 175.007Z" fill="#6961B6"/>
<path d="M1372.71 175.007L1372.71 1235L1370.63 1235L1370.63 175.007L1372.71 175.007Z" fill="#6961B6"/>
<path d="M1610.45 175.007L1610.45 1235L1608.37 1235L1608.37 175.007L1610.45 175.007Z" fill="#6961B6"/>
<path d="M1561.26 160.317L1561.26 1220.31L1559.19 1220.31L1559.19 160.317L1561.26 160.317Z" fill="#6961B6"/>
<path d="M1658 175.007L1658 1235L1655.92 1235L1655.92 175.007L1658 175.007Z" fill="#6961B6"/>
<path d="M1705.54 175.007L1705.54 1235L1703.47 1235L1703.47 175.007L1705.54 175.007Z" fill="#6961B6"/>
<path d="M1753.09 175.007L1753.09 1235L1751.01 1235L1751.01 175.007L1753.09 175.007Z" fill="#6961B6"/>
<path d="M1800.64 175.007L1800.64 1235L1798.56 1235L1798.56 175.007L1800.64 175.007Z" fill="#6961B6"/>
<path d="M1848.19 175.007L1848.19 1235L1846.11 1235L1846.11 175.007L1848.19 175.007Z" fill="#6961B6"/>
<path d="M1895.73 175.007L1895.73 1235L1893.65 1235L1893.65 175.007L1895.73 175.007Z" fill="#6961B6"/>
<path d="M1943.28 175.007L1943.28 1235L1941.2 1235L1941.2 175.007L1943.28 175.007Z" fill="#6961B6"/>
<path d="M1990.83 175.007L1990.83 1235L1988.75 1235L1988.75 175.007L1990.83 175.007Z" fill="#6961B6"/>
<path d="M2038.37 175.007L2038.37 1235L2036.3 1235L2036.3 175.007L2038.37 175.007Z" fill="#6961B6"/>
<path d="M2085.92 175.007L2085.92 1235L2083.84 1235L2083.84 175.007L2085.92 175.007Z" fill="#6961B6"/>
<path d="M2133.47 175.007L2133.47 1235L2131.39 1235L2131.39 175.007L2133.47 175.007Z" fill="#6961B6"/>
<path d="M2181.02 175.007L2181.02 1235L2178.94 1235L2178.94 175.007L2181.02 175.007Z" fill="#6961B6"/>
<path d="M2228.56 175.007L2228.56 1235L2226.49 1235L2226.49 175.007L2228.56 175.007Z" fill="#6961B6"/>
<path d="M2276.11 175.007L2276.11 1235L2274.03 1235L2274.03 175.007L2276.11 175.007Z" fill="#6961B6"/>
<path d="M2323.66 175.007L2323.66 1235L2321.58 1235L2321.58 175.007L2323.66 175.007Z" fill="#6961B6"/>
<path d="M2371.21 175.007L2371.21 1235L2369.13 1235L2369.13 175.007L2371.21 175.007Z" fill="#6961B6"/>
<path d="M2418.75 175.007L2418.75 1235L2416.68 1235L2416.68 175.007L2418.75 175.007Z" fill="#6961B6"/>
<path d="M2445.15 960.958C2443.99 959.323 2444.09 956.793 2445.37 955.313C2446.64 953.831 2448.6 953.958 2449.76 955.592C2450.91 957.234 2450.81 959.759 2449.54 961.241C2448.27 962.722 2446.3 962.599 2445.15 960.958Z" fill="#F8F6F4"/>
<path d="M2435.85 947.756C2434.7 946.121 2434.8 943.589 2436.07 942.107C2437.35 940.626 2439.31 940.756 2440.47 942.394C2441.62 944.032 2441.52 946.556 2440.25 948.039C2438.97 949.52 2437.01 949.394 2435.85 947.756Z" fill="#F8F6F4"/>
<path d="M2446.12 935.81C2444.97 934.172 2445.07 931.643 2446.34 930.158C2447.61 928.68 2449.58 928.806 2450.73 930.445C2451.88 932.083 2451.79 934.61 2450.51 936.093C2449.24 937.574 2447.27 937.444 2446.12 935.81Z" fill="#F8F6F4"/>
<path d="M2447.1 910.658C2445.94 909.023 2446.04 906.491 2447.31 905.009C2448.59 903.524 2450.56 903.654 2451.71 905.292C2452.86 906.931 2452.76 909.456 2451.49 910.941C2450.21 912.419 2448.25 912.296 2447.1 910.658Z" fill="#F8F6F4"/>
<path d="M2426.56 934.558C2425.41 932.92 2425.5 930.387 2426.78 928.91C2428.05 927.424 2430.02 927.554 2431.17 929.193C2432.32 930.829 2432.22 933.354 2430.95 934.836C2429.68 936.317 2427.71 936.192 2426.56 934.558Z" fill="#F8F6F4"/>
<path d="M2436.83 922.608C2435.67 920.969 2435.77 918.437 2437.05 916.959C2438.32 915.474 2440.28 915.604 2441.44 917.242C2442.59 918.881 2442.49 921.407 2441.22 922.887C2439.95 924.37 2437.98 924.246 2436.83 922.608Z" fill="#F8F6F4"/>
<path d="M2448.07 885.506C2446.92 883.868 2447.02 881.339 2448.29 879.861C2449.56 878.376 2451.53 878.502 2452.68 880.141C2453.83 881.779 2453.74 884.304 2452.46 885.789C2451.19 887.27 2449.22 887.144 2448.07 885.506Z" fill="#F8F6F4"/>
<path d="M2437.8 897.459C2436.65 895.817 2436.75 893.289 2438.02 891.807C2439.29 890.326 2441.26 890.452 2442.41 892.09C2443.56 893.729 2443.47 896.252 2442.19 897.737C2440.92 899.218 2438.95 899.094 2437.8 897.459Z" fill="#F8F6F4"/>
<path d="M2417.26 921.356C2416.11 919.718 2416.21 917.189 2417.48 915.708C2418.76 914.223 2420.72 914.353 2421.88 915.987C2423.03 917.627 2422.93 920.152 2421.66 921.634C2420.38 923.119 2418.42 922.994 2417.26 921.356Z" fill="#F8F6F4"/>
<path d="M2427.53 909.406C2426.38 907.767 2426.48 905.239 2427.75 903.757C2429.03 902.272 2430.99 902.402 2432.14 904.04C2433.3 905.673 2433.2 908.202 2431.93 909.687C2430.65 911.165 2428.68 911.044 2427.53 909.406Z" fill="#F8F6F4"/>
<path d="M2438.77 872.304C2437.62 870.665 2437.72 868.137 2438.99 866.655C2440.27 865.174 2442.23 865.3 2443.39 866.938C2444.54 868.577 2444.44 871.103 2443.17 872.585C2441.89 874.066 2439.93 873.942 2438.77 872.304Z" fill="#F8F6F4"/>
<path d="M2449.04 860.353C2447.89 858.715 2447.99 856.187 2449.26 854.705C2450.54 853.224 2452.5 853.35 2453.65 854.992C2454.81 856.626 2454.71 859.153 2453.44 860.637C2452.16 862.118 2450.19 861.992 2449.04 860.353Z" fill="#F8F6F4"/>
<path d="M2428.51 884.257C2427.35 882.615 2427.45 880.087 2428.72 878.605C2430 877.124 2431.97 877.25 2433.12 878.888C2434.27 880.525 2434.17 883.053 2432.9 884.535C2431.63 886.016 2429.66 885.892 2428.51 884.257Z" fill="#F8F6F4"/>
<path d="M2407.97 908.154C2406.82 906.516 2406.91 903.987 2408.19 902.505C2409.46 901.02 2411.43 901.149 2412.58 902.787C2413.73 904.421 2413.64 906.95 2412.36 908.432C2411.09 909.917 2409.12 909.792 2407.97 908.154Z" fill="#F8F6F4"/>
<path d="M2418.24 896.204C2417.09 894.566 2417.18 892.037 2418.46 890.556C2419.73 889.074 2421.7 889.201 2422.85 890.837C2424 892.475 2423.91 895 2422.63 896.485C2421.36 897.967 2419.39 897.842 2418.24 896.204Z" fill="#F8F6F4"/>
<path d="M2450.02 835.201C2448.86 833.563 2448.96 831.034 2450.24 829.553C2451.51 828.071 2453.48 828.201 2454.63 829.839C2455.78 831.474 2455.68 834.001 2454.41 835.484C2453.14 836.966 2451.17 836.839 2450.02 835.201Z" fill="#F8F6F4"/>
<path d="M2429.48 859.101C2428.33 857.467 2428.42 854.935 2429.7 853.453C2430.97 851.972 2432.94 852.098 2434.09 853.736C2435.24 855.373 2435.15 857.901 2433.88 859.383C2432.6 860.864 2430.63 860.74 2429.48 859.101Z" fill="#F8F6F4"/>
<path d="M2439.75 847.151C2438.6 845.513 2438.69 842.984 2439.97 841.503C2441.24 840.021 2443.21 840.151 2444.36 841.79C2445.51 843.424 2445.42 845.951 2444.14 847.433C2442.87 848.914 2440.9 848.789 2439.75 847.151Z" fill="#F8F6F4"/>
<path d="M2419.21 871.052C2418.06 869.413 2418.16 866.885 2419.43 865.403C2420.7 863.922 2422.67 864.048 2423.82 865.685C2424.98 867.319 2424.88 869.851 2423.6 871.333C2422.33 872.815 2420.37 872.69 2419.21 871.052Z" fill="#F8F6F4"/>
<path d="M2398.68 894.952C2397.52 893.314 2397.62 890.785 2398.89 889.304C2400.17 887.822 2402.14 887.947 2403.29 889.585C2404.44 891.22 2404.34 893.748 2403.07 895.233C2401.79 896.715 2399.83 896.59 2398.68 894.952Z" fill="#F8F6F4"/>
<path d="M2408.94 883.002C2407.79 881.364 2407.89 878.835 2409.16 877.354C2410.44 875.872 2412.4 875.997 2413.56 877.635C2414.71 879.273 2414.61 881.802 2413.34 883.283C2412.07 884.765 2410.1 884.64 2408.94 883.002Z" fill="#F8F6F4"/>
<path d="M2440.72 821.999C2439.57 820.364 2439.67 817.836 2440.94 816.351C2442.22 814.869 2444.18 814.999 2445.33 816.637C2446.49 818.274 2446.39 820.799 2445.12 822.28C2443.84 823.762 2441.88 823.637 2440.72 821.999Z" fill="#F8F6F4"/>
<path d="M2420.19 845.899C2419.03 844.265 2419.13 841.736 2420.41 840.251C2421.68 838.769 2423.65 838.898 2424.8 840.532C2425.95 842.171 2425.86 844.699 2424.58 846.181C2423.31 847.662 2421.34 847.538 2420.19 845.899Z" fill="#F8F6F4"/>
<path d="M2430.46 833.949C2429.3 832.314 2429.4 829.782 2430.67 828.301C2431.95 826.819 2433.91 826.949 2435.07 828.584C2436.22 830.22 2436.12 832.749 2434.85 834.23C2433.58 835.712 2431.61 835.587 2430.46 833.949Z" fill="#F8F6F4"/>
<path d="M2409.92 857.85C2408.77 856.211 2408.86 853.683 2410.14 852.201C2411.41 850.72 2413.38 850.848 2414.53 852.483C2415.68 854.121 2415.58 856.649 2414.31 858.131C2413.04 859.612 2411.07 859.488 2409.92 857.85Z" fill="#F8F6F4"/>
<path d="M2389.38 881.75C2388.23 880.112 2388.33 877.583 2389.6 876.102C2390.88 874.62 2392.84 874.745 2394 876.383C2395.15 878.021 2395.05 880.55 2393.78 882.031C2392.5 883.513 2390.54 883.388 2389.38 881.75Z" fill="#F8F6F4"/>
<path d="M2399.65 869.8C2398.5 868.162 2398.6 865.633 2399.87 864.151C2401.14 862.67 2403.11 862.795 2404.26 864.433C2405.41 866.071 2405.32 868.6 2404.04 870.081C2402.77 871.563 2400.8 871.438 2399.65 869.8Z" fill="#F8F6F4"/>
<path d="M2450.99 810.053C2449.84 808.415 2449.94 805.886 2451.21 804.401C2452.48 802.92 2454.45 803.05 2455.6 804.688C2456.76 806.326 2456.66 808.849 2455.38 810.333C2454.11 811.818 2452.14 811.691 2450.99 810.053Z" fill="#F8F6F4"/>
<path d="M1592.48 409.387C1592.48 409.428 1592.47 409.47 1592.46 409.513C1592.47 409.47 1592.47 409.429 1592.48 409.387ZM1592.43 409.632C1592.42 409.665 1592.42 409.693 1592.41 409.723C1592.42 409.693 1592.42 409.663 1592.43 409.632Z" fill="#5E53AE"/>
</g>
</g>
<path d="M1417.62 174.905H1415.12C1415.75 173.834 1416.47 172.806 1417.28 171.82C1417.42 172.922 1417.53 173.946 1417.62 174.905ZM1408.35 174.905H1161.18C1160.7 174.002 1160.37 173.17 1160.25 172.161C1159.91 169.201 1161.18 169.478 1158.73 166.337C1156.28 163.195 1155.94 160.235 1157.31 154.077C1158.69 147.918 1156 142.685 1156 142.685L1404.55 114C1404.55 114 1407.4 122.642 1406.37 129.836C1405.31 137.035 1406.09 140.14 1408.86 144.321C1411.65 148.497 1412.57 154.164 1415.58 164.088C1415.64 164.299 1415.7 164.509 1415.76 164.716C1415.46 164.986 1415.15 165.255 1414.84 165.524C1414.06 165.996 1413.51 166.674 1413.05 167.432C1411.81 169.323 1410.59 171.209 1409.36 173.1C1408.75 173.555 1408.57 174.243 1408.35 174.905Z" fill="#E1B6DF"/>
<path d="M1169.72 236.152C1169.72 236.152 1169.99 231.425 1169.26 228.509C1168.5 225.597 1173.42 221.606 1169.84 216.019C1166.26 210.432 1164.78 204.604 1166.42 197.143C1168.07 189.681 1166.78 188.949 1164.8 182.756C1163.51 178.669 1162.09 176.654 1161.18 174.905H1408.35H1415.12H1417.62C1417.95 178.539 1418.03 181.224 1419.36 183.575C1421.7 187.804 1421.64 201.962 1418.49 207.446L1169.72 236.152Z" fill="#FAC2D3"/>
<path d="M1162.38 1235.25L1164.88 1235.25C1164.25 1236.32 1163.53 1237.35 1162.72 1238.33C1162.58 1237.23 1162.47 1236.21 1162.38 1235.25ZM1171.65 1235.25L1418.82 1235.25C1419.3 1236.15 1419.63 1236.98 1419.75 1237.99C1420.09 1240.95 1418.82 1240.67 1421.27 1243.82C1423.72 1246.96 1424.06 1249.92 1422.69 1256.08C1421.31 1262.23 1424 1267.47 1424 1267.47L1175.45 1296.15C1175.45 1296.15 1172.6 1287.51 1173.63 1280.32C1174.69 1273.12 1173.9 1270.01 1171.14 1265.83C1168.35 1261.66 1167.43 1255.99 1164.42 1246.06C1164.36 1245.85 1164.3 1245.64 1164.23 1245.44C1164.54 1245.17 1164.85 1244.9 1165.16 1244.63C1165.94 1244.16 1166.49 1243.48 1166.95 1242.72C1168.19 1240.83 1169.41 1238.94 1170.64 1237.05C1171.25 1236.6 1171.43 1235.91 1171.65 1235.25Z" fill="#E1B6DF"/>
<path d="M1410.28 1174C1410.28 1174 1410.01 1178.73 1410.74 1181.64C1411.5 1184.56 1406.58 1188.55 1410.16 1194.13C1413.74 1199.72 1415.22 1205.55 1413.58 1213.01C1411.93 1220.47 1413.22 1221.2 1415.2 1227.4C1416.49 1231.48 1417.91 1233.5 1418.82 1235.25L1171.65 1235.25L1164.88 1235.25L1162.38 1235.25C1162.05 1231.61 1161.97 1228.93 1160.64 1226.58C1158.3 1222.35 1158.36 1208.19 1161.51 1202.71L1410.28 1174Z" fill="#FAC2D3"/>
<defs>
<filter id="filter0_d_234_83" x="119" y="160" width="1212" height="1120" filterUnits="userSpaceOnUse" color-interpolation-filters="sRGB">
<feFlood flood-opacity="0" result="BackgroundImageFix"/>
<feColorMatrix in="SourceAlpha" type="matrix" values="0 0 0 0 0 0 0 0 0 0 0 0 0 0 0 0 0 0 127 0" result="hardAlpha"/>
<feOffset dx="15" dy="15"/>
<feGaussianBlur stdDeviation="15"/>
<feComposite in2="hardAlpha" operator="out"/>
<feColorMatrix type="matrix" values="0 0 0 0 0 0 0 0 0 0 0 0 0 0 0 0 0 0 0.25 0"/>
<feBlend mode="normal" in2="BackgroundImageFix" result="effect1_dropShadow_234_83"/>
<feBlend mode="normal" in="SourceGraphic" in2="effect1_dropShadow_234_83" result="shape"/>
</filter>
<filter id="filter1_d_234_83" x="1271" y="160" width="1226" height="1120" filterUnits="userSpaceOnUse" color-interpolation-filters="sRGB">
<feFlood flood-opacity="0" result="BackgroundImageFix"/>
<feColorMatrix in="SourceAlpha" type="matrix" values="0 0 0 0 0 0 0 0 0 0 0 0 0 0 0 0 0 0 127 0" result="hardAlpha"/>
<feOffset dx="15" dy="15"/>
<feGaussianBlur stdDeviation="15"/>
<feComposite in2="hardAlpha" operator="out"/>
<feColorMatrix type="matrix" values="0 0 0 0 0 0 0 0 0 0 0 0 0 0 0 0 0 0 0.25 0"/>
<feBlend mode="normal" in2="BackgroundImageFix" result="effect1_dropShadow_234_83"/>
<feBlend mode="normal" in="SourceGraphic" in2="effect1_dropShadow_234_83" result="shape"/>
</filter>
<linearGradient id="paint0_linear_234_83" x1="2581.55" y1="1440" x2="16.2266" y2="12.343" gradientUnits="userSpaceOnUse">
<stop stop-color="#998EF7"/>
<stop offset="1" stop-color="white" stop-opacity="0.58"/>
</linearGradient>
<clipPath id="clip0_234_83">
<rect x="134" y="1235" width="1060" height="1152" rx="5" transform="rotate(-90 134 1235)" fill="white"/>
</clipPath>
<clipPath id="clip1_234_83">
<rect x="1286" y="1235" width="1060" height="1166" rx="5" transform="rotate(-90 1286 1235)" fill="white"/>
</clipPath>
</defs>
</svg>
